<svg width="375" height="375" viewBox="0 0 375 375" fill="none" xmlns="http://www.w3.org/2000/svg">
<ellipse cx="187.5" cy="187.5" rx="134.028" ry="134.028" fill="white"/>
<path d="M326.247 206.031C326.124 206.29 326.203 206.493 326.254 206.701C326.561 207.948 326.883 209.193 327.165 210.447C327.445 211.699 327.684 212.96 327.942 214.222C327.842 214.321 327.779 214.434 327.694 214.455C327.574 214.485 327.426 214.476 327.31 214.43C327.191 214.384 327.088 214.282 326.993 214.189C325.318 212.564 323.612 210.967 322.074 209.206C321.934 209.046 321.769 208.907 321.608 208.766C321.573 208.735 321.507 208.74 321.455 208.729C321.253 208.852 321.212 209.068 321.14 209.269C320.505 211.008 319.792 212.713 318.919 214.347C318.805 214.56 318.69 214.773 318.55 214.967C318.445 215.113 318.288 215.143 318.093 215.003C317.95 214.72 317.891 214.385 317.848 214.036C317.675 212.623 317.689 211.202 317.653 209.782C317.639 209.195 317.568 208.608 317.516 208.023C317.51 207.948 317.463 207.877 317.418 207.761C317.294 207.768 317.162 207.753 317.046 207.788C316.225 208.035 315.412 208.312 314.588 208.544C313.324 208.9 312.053 209.23 310.784 209.565C310.631 209.606 310.465 209.637 310.311 209.621C310.194 209.609 310.087 209.513 309.945 209.439C310.108 208.991 310.389 208.674 310.69 208.373C311.922 207.137 313.157 205.905 314.391 204.673C314.674 204.389 314.958 204.107 315.27 203.797C315.158 203.641 315.088 203.497 314.978 203.397C313.797 202.344 312.602 201.305 311.429 200.244C311.013 199.867 310.636 199.444 310.264 199.023C310.169 198.916 310.145 198.734 310.121 198.582C310.111 198.52 310.186 198.445 310.216 198.389C310.463 198.248 310.697 198.306 310.935 198.354C312.512 198.673 314.061 199.104 315.606 199.551C316.193 199.72 316.781 199.895 317.419 199.984C317.572 199.542 317.627 199.122 317.644 198.699C317.709 197.092 317.927 195.501 318.13 193.907C318.196 193.376 318.266 192.845 318.328 192.314C318.353 192.096 318.393 191.889 318.63 191.712C318.718 191.764 318.857 191.803 318.925 191.896C319.115 192.152 319.304 192.417 319.443 192.704C319.861 193.573 320.254 194.454 320.658 195.331C321.141 196.377 321.625 197.423 322.112 198.467C322.166 198.583 322.25 198.686 322.311 198.782C322.621 198.805 322.787 198.603 322.979 198.474C324.091 197.725 325.188 196.951 326.309 196.214C327.16 195.654 328.034 195.125 328.91 194.604C329.173 194.447 329.431 194.205 329.796 194.321C329.995 194.601 329.912 194.895 329.826 195.171C329.738 195.451 329.608 195.719 329.482 195.985C328.691 197.659 327.774 199.266 326.846 200.867C326.699 201.12 326.525 201.359 326.434 201.699C326.605 201.78 326.759 201.87 326.924 201.93C328.261 202.412 329.602 202.883 330.936 203.371C331.415 203.546 331.884 203.746 332.348 203.955C332.567 204.054 332.784 204.177 332.961 204.335C333.058 204.423 333.071 204.605 333.11 204.714C332.939 204.99 332.711 205.078 332.473 205.118C331.759 205.235 331.044 205.345 330.328 205.444C329.559 205.55 328.789 205.649 328.017 205.738C327.435 205.803 326.841 205.8 326.247 206.031Z" fill="#2C2424"/>
<path d="M62.7693 161.351C62.5824 161.743 62.7024 162.05 62.7799 162.364C63.2444 164.252 63.7317 166.136 64.157 168.033C64.5815 169.928 64.9431 171.836 65.3341 173.746C65.1823 173.896 65.0876 174.066 64.9578 174.099C64.7766 174.144 64.5521 174.13 64.3774 174.061C64.197 173.99 64.0419 173.836 63.8974 173.696C61.362 171.236 58.7809 168.821 56.4537 166.156C56.2422 165.913 55.9924 165.703 55.7492 165.49C55.6961 165.443 55.5965 165.451 55.5166 165.434C55.2113 165.62 55.15 165.947 55.0398 166.25C54.0799 168.882 53.0007 171.462 51.6792 173.936C51.5077 174.257 51.333 174.58 51.1216 174.874C50.9624 175.095 50.7241 175.14 50.4294 174.928C50.2139 174.5 50.1233 173.992 50.0588 173.465C49.7976 171.326 49.818 169.175 49.7641 167.028C49.7421 166.139 49.6351 165.251 49.5568 164.365C49.547 164.251 49.476 164.144 49.4082 163.969C49.2205 163.98 49.0213 163.956 48.8458 164.009C47.6034 164.384 46.3732 164.802 45.1251 165.154C43.2134 165.693 41.2902 166.192 39.3694 166.699C39.1376 166.76 38.8862 166.808 38.6527 166.784C38.4764 166.765 38.314 166.62 38.1001 166.508C38.3458 165.831 38.7719 165.351 39.2266 164.894C41.091 163.025 42.9603 161.161 44.8272 159.295C45.2557 158.867 45.6859 158.44 46.1569 157.97C45.9879 157.735 45.8826 157.516 45.7153 157.366C43.9284 155.771 42.1203 154.2 40.3449 152.593C39.7155 152.023 39.145 151.384 38.5817 150.746C38.438 150.584 38.4029 150.309 38.3662 150.079C38.3507 149.986 38.4642 149.872 38.5091 149.786C38.8837 149.573 39.238 149.661 39.598 149.733C41.9848 150.217 44.3284 150.868 46.6655 151.544C47.5544 151.801 48.4442 152.066 49.409 152.2C49.6409 151.531 49.7241 150.896 49.7494 150.256C49.8482 147.824 50.1788 145.416 50.4849 143.005C50.5861 142.201 50.6906 141.398 50.7853 140.594C50.8237 140.264 50.8841 139.951 51.2424 139.683C51.3747 139.761 51.5853 139.821 51.6881 139.96C51.9763 140.349 52.2628 140.75 52.4718 141.184C53.1052 142.499 53.7003 143.833 54.3117 145.158C55.0423 146.742 55.7737 148.324 56.5108 149.904C56.5932 150.08 56.7198 150.236 56.8128 150.382C57.2814 150.416 57.5328 150.11 57.8226 149.916C59.5066 148.782 61.1661 147.611 62.8624 146.496C64.1505 145.648 65.4721 144.848 66.7977 144.059C67.1961 143.822 67.5863 143.455 68.1397 143.631C68.4409 144.055 68.3152 144.5 68.1846 144.917C68.0516 145.34 67.8548 145.746 67.6646 146.149C66.4671 148.683 65.0794 151.114 63.6746 153.536C63.4526 153.919 63.1897 154.281 63.0518 154.795C63.3105 154.919 63.544 155.054 63.793 155.144C65.8157 155.875 67.845 156.588 69.8645 157.326C70.5886 157.591 71.2988 157.894 72.0016 158.21C72.3322 158.359 72.6612 158.545 72.9281 158.784C73.0759 158.917 73.0946 159.194 73.1542 159.357C72.8946 159.776 72.551 159.909 72.1902 159.969C71.1102 160.147 70.0278 160.312 68.9438 160.462C67.7806 160.624 66.6149 160.774 65.4476 160.907C64.566 161.006 63.6672 161.001 62.7693 161.351Z" fill="#2C2424"/>
<path d="M291.716 143.16C291.41 143.074 291.179 143.01 290.908 142.935C290.664 141.3 290.811 139.711 290.799 138.129C290.785 136.485 290.778 134.836 290.9 133.199C291.018 131.623 291.123 130.059 291.074 128.483C290.266 128.333 289.692 128.619 289.11 128.756C285.611 129.581 282.121 130.437 278.627 131.283C278.106 131.409 277.605 131.462 277.275 130.973C277.132 130.528 277.296 130.215 277.573 129.958C278.326 129.258 279.049 128.517 279.857 127.885C282.001 126.202 284.184 124.57 286.349 122.916C286.707 122.642 287.157 122.456 287.313 121.939C287.246 121.82 287.2 121.658 287.094 121.563C285.137 119.818 283.155 118.098 281.214 116.335C280.102 115.324 278.912 114.396 277.864 113.317C277.242 112.676 276.1 111.68 275.85 110.814C275.485 109.553 276.449 109.991 277.179 110.211C278.493 110.609 279.803 111.017 281.125 111.387C281.954 111.619 291.928 114.276 292.004 114.043C292.098 113.755 292.253 113.486 292.263 113.21C292.298 112.287 292.259 111.36 292.289 110.435C292.405 106.842 292.537 103.25 292.666 99.6569C292.689 99.0408 292.728 98.4236 293.314 97.9746C294.076 98.2863 294.367 98.952 294.625 99.6115C295.206 101.094 295.746 102.592 296.31 104.082C297.239 106.531 298.17 108.979 299.108 111.426C299.162 111.564 299.276 111.68 299.357 111.799C299.779 111.988 300.053 111.712 300.34 111.514C302.795 109.819 305.227 108.089 307.707 106.433C309.202 105.435 310.768 104.538 312.314 103.618C312.654 103.417 313.051 103.312 313.336 103.197C313.817 103.384 313.896 103.691 313.808 104.001C313.698 104.391 313.532 104.774 313.34 105.133C312.199 107.261 311.041 109.381 309.892 111.506C309.085 112.998 308.279 114.49 307.485 115.989C307.419 116.113 307.446 116.286 307.428 116.441C307.805 116.857 308.329 116.924 308.804 117.096C312.579 118.458 316.313 119.921 319.916 121.695C320.462 121.964 321.062 122.164 321.528 122.727C321.515 122.92 321.501 123.164 321.487 123.391C321.303 123.498 321.18 123.621 321.042 123.642C319.519 123.869 317.994 124.086 316.468 124.293C314.534 124.556 312.6 124.812 310.665 125.066C310.106 125.139 309.542 125.184 308.983 125.265C308.641 125.315 308.305 125.41 307.857 125.509C307.991 125.926 308.067 126.262 308.202 126.574C309.868 130.443 311.554 134.303 313.209 138.178C313.571 139.023 313.832 139.91 314.1 140.664C313.906 141.319 313.514 141.434 313.09 141.262C312.669 141.09 312.27 140.832 311.909 140.551C310.654 139.568 309.406 138.575 308.18 137.558C305.49 135.323 302.815 133.07 300.13 130.829C299.977 130.701 299.784 130.62 299.658 130.546C299.149 130.588 299.031 130.961 298.861 131.265C297.733 133.284 296.641 135.324 295.48 137.324C294.552 138.924 293.547 140.48 292.56 142.046C292.316 142.424 292.012 142.769 291.716 143.16Z" fill="#FFB500"/>
<path d="M262.043 187.5C261.902 187.461 261.795 187.431 261.671 187.397C261.558 186.644 261.626 185.912 261.62 185.184C261.614 184.427 261.611 183.667 261.667 182.913C261.721 182.188 261.77 181.468 261.747 180.742C261.375 180.673 261.111 180.804 260.843 180.867C259.232 181.247 257.624 181.642 256.016 182.031C255.776 182.089 255.545 182.114 255.393 181.888C255.327 181.683 255.402 181.539 255.53 181.421C255.877 181.099 256.21 180.758 256.582 180.466C257.569 179.692 258.574 178.94 259.571 178.178C259.736 178.052 259.943 177.966 260.015 177.728C259.984 177.674 259.963 177.599 259.914 177.555C259.013 176.752 258.1 175.96 257.207 175.148C256.695 174.682 256.147 174.255 255.664 173.758C255.378 173.463 254.852 173.004 254.737 172.606C254.569 172.025 255.012 172.227 255.349 172.328C255.954 172.511 256.557 172.699 257.166 172.869C257.548 172.976 262.14 174.2 262.175 174.093C262.219 173.96 262.29 173.836 262.294 173.709C262.311 173.284 262.293 172.857 262.306 172.431C262.36 170.777 262.421 169.122 262.48 167.468C262.491 167.184 262.509 166.9 262.779 166.693C263.129 166.837 263.263 167.143 263.382 167.447C263.65 168.13 263.898 168.82 264.158 169.505C264.586 170.633 265.015 171.761 265.447 172.887C265.471 172.951 265.524 173.004 265.561 173.059C265.756 173.146 265.882 173.019 266.014 172.928C267.144 172.147 268.264 171.351 269.406 170.588C270.095 170.129 270.816 169.716 271.528 169.292C271.684 169.199 271.867 169.151 271.998 169.098C272.22 169.184 272.256 169.326 272.216 169.468C272.165 169.648 272.089 169.824 272 169.99C271.475 170.97 270.941 171.946 270.412 172.924C270.041 173.611 269.67 174.298 269.304 174.989C269.274 175.046 269.286 175.125 269.278 175.197C269.451 175.388 269.692 175.419 269.911 175.498C271.65 176.125 273.369 176.799 275.028 177.616C275.28 177.74 275.556 177.832 275.77 178.091C275.765 178.18 275.758 178.293 275.752 178.397C275.667 178.446 275.61 178.503 275.547 178.513C274.845 178.617 274.143 178.717 273.44 178.812C272.55 178.934 271.659 179.051 270.768 179.168C270.511 179.202 270.251 179.223 269.994 179.26C269.836 179.283 269.682 179.327 269.475 179.372C269.537 179.564 269.572 179.719 269.634 179.863C270.401 181.645 271.177 183.422 271.94 185.206C272.106 185.595 272.227 186.004 272.35 186.351C272.261 186.652 272.08 186.706 271.885 186.626C271.691 186.547 271.507 186.428 271.341 186.299C270.763 185.846 270.189 185.389 269.624 184.92C268.385 183.892 267.153 182.854 265.917 181.822C265.847 181.763 265.758 181.726 265.7 181.692C265.465 181.711 265.411 181.883 265.333 182.023C264.813 182.952 264.311 183.892 263.776 184.813C263.348 185.55 262.886 186.266 262.432 186.987C262.319 187.161 262.179 187.32 262.043 187.5Z" fill="#E56D69"/>
<path d="M62.3561 198.641C60.9105 198.966 59.5419 199.521 58.0595 199.695C58.0026 199.599 57.9519 199.512 57.8867 199.401C58.4176 198.807 59.0714 198.389 59.6654 197.904C60.2414 197.434 60.8397 196.989 61.4671 196.503C61.3414 196.346 61.2602 196.215 61.152 196.113C60.1554 195.185 59.1519 194.264 58.1553 193.335C57.9422 193.136 57.7229 192.936 57.6479 192.653C57.6917 192.467 57.8242 192.433 57.9589 192.443C58.224 192.463 58.496 192.473 58.7493 192.543C59.6238 192.785 60.4913 193.052 61.3616 193.308C61.6135 193.382 61.8675 193.451 62.1277 193.525C62.3221 193.2 62.3408 192.875 62.3845 192.566C62.5684 191.274 62.7274 189.977 62.9071 188.684C62.9578 188.318 63.0494 187.958 63.1264 187.573C63.2833 187.542 63.4054 187.519 63.5019 187.5C63.7809 187.728 63.8364 188.03 63.9273 188.302C64.2819 189.365 64.6074 190.437 64.9586 191.5C65.0565 191.795 65.0683 192.137 65.3715 192.388C65.5568 192.288 65.7428 192.194 65.9226 192.089C67.1468 191.378 68.3675 190.66 69.5973 189.958C69.7944 189.846 70.0012 189.67 70.2677 189.809C70.428 189.965 70.4072 190.151 70.3233 190.324C70.1602 190.66 69.9943 190.996 69.8014 191.317C69.3461 192.071 68.8735 192.815 68.4113 193.565C68.287 193.766 68.1739 193.973 68.0677 194.156C68.1788 194.44 68.4279 194.434 68.6132 194.499C69.7458 194.899 70.8875 195.276 72.0229 195.668C72.3248 195.772 72.6246 195.889 72.9105 196.031C73.0063 196.079 73.0549 196.221 73.1541 196.363C72.9528 196.485 72.8106 196.616 72.6433 196.665C71.7453 196.926 70.8285 197.103 69.8964 197.189C69.1261 197.259 68.3537 197.306 67.5826 197.372C67.4841 197.38 67.3897 197.437 67.2544 197.484C67.3175 197.685 67.3626 197.861 67.4272 198.03C67.7707 198.926 68.124 199.819 68.4633 200.717C68.5764 201.015 68.6736 201.322 68.752 201.631C68.8305 201.939 68.886 202.255 68.7749 202.55C68.4855 202.743 68.2801 202.587 68.1004 202.44C67.6048 202.034 67.1204 201.613 66.6388 201.191C66.1766 200.785 65.7248 200.37 65.2647 199.962C65.1876 199.895 65.0918 199.847 65.0322 199.809C64.7955 199.816 64.7219 199.971 64.6532 200.11C64.3569 200.707 64.0675 201.308 63.7816 201.911C63.5421 202.416 63.3214 202.93 63.0057 203.403C62.8807 203.403 62.7808 203.403 62.6892 203.403C62.5268 203.14 62.574 202.867 62.5712 202.604C62.558 201.563 62.5594 200.522 62.5469 199.48C62.5421 199.223 62.6087 198.946 62.3561 198.641Z" fill="#FFB500"/>
<path d="M99.1684 127.182C99.36 128.263 99.7257 129.295 99.8046 130.399C99.7314 130.438 99.6653 130.473 99.5815 130.517C99.1592 130.104 98.8718 129.605 98.5326 129.149C98.2032 128.706 97.8939 128.248 97.5551 127.768C97.4353 127.855 97.335 127.911 97.2566 127.988C96.5352 128.695 95.819 129.408 95.0983 130.114C94.9437 130.265 94.7876 130.421 94.576 130.467C94.4405 130.428 94.4186 130.328 94.4308 130.23C94.4549 130.034 94.471 129.833 94.5314 129.648C94.74 129.008 94.9672 128.375 95.1861 127.739C95.2492 127.555 95.3096 127.369 95.3724 127.179C95.1381 127.024 94.8978 126.999 94.6703 126.956C93.7194 126.776 92.7648 126.615 91.813 126.438C91.5434 126.389 91.28 126.309 90.9975 126.238C90.98 126.121 90.9668 126.03 90.9562 125.958C91.1344 125.759 91.3598 125.727 91.565 125.669C92.3638 125.443 93.1686 125.237 93.9679 125.013C94.1892 124.951 94.4429 124.953 94.6386 124.737C94.5708 124.596 94.5071 124.456 94.4363 124.319C93.9508 123.388 93.4604 122.46 92.9813 121.526C92.9049 121.377 92.781 121.217 92.8938 121.025C93.0148 120.911 93.1518 120.933 93.2777 121.001C93.5213 121.133 93.7642 121.268 93.9944 121.421C94.5376 121.783 95.0726 122.158 95.6128 122.526C95.7574 122.624 95.9072 122.716 96.0393 122.8C96.2534 122.727 96.257 122.543 96.3117 122.408C96.646 121.582 96.9632 120.75 97.2921 119.922C97.3798 119.702 97.4764 119.484 97.5912 119.277C97.6297 119.208 97.7372 119.177 97.8451 119.107C97.9289 119.26 98.021 119.37 98.0514 119.496C98.215 120.17 98.3149 120.855 98.3466 121.548C98.3733 122.121 98.3819 122.694 98.4051 123.268C98.408 123.341 98.4464 123.413 98.4764 123.514C98.6273 123.474 98.7596 123.447 98.8871 123.405C99.5623 123.181 100.236 122.949 100.912 122.728C101.138 122.654 101.368 122.593 101.599 122.544C101.829 122.496 102.065 122.466 102.281 122.559C102.414 122.779 102.292 122.927 102.176 123.055C101.859 123.408 101.531 123.753 101.202 124.095C100.887 124.423 100.563 124.745 100.246 125.071C100.193 125.126 100.155 125.196 100.124 125.238C100.122 125.414 100.234 125.473 100.335 125.529C100.767 125.768 101.203 126.003 101.639 126.235C102.005 126.429 102.378 126.61 102.718 126.86C102.714 126.952 102.711 127.026 102.708 127.094C102.508 127.205 102.307 127.162 102.112 127.155C101.341 127.13 100.569 127.094 99.7977 127.068C99.6059 127.063 99.4032 127.005 99.1684 127.182Z" fill="#E56D69"/>
<path d="M104.743 113.244C104.809 112.914 104.792 112.623 104.924 112.412C105.19 111.983 105.514 111.581 105.854 111.198C106.904 110.01 107.972 108.838 109.028 107.656C109.118 107.555 109.17 107.426 109.281 107.242C109.031 107.101 108.811 106.928 108.556 106.841C106.96 106.3 105.349 105.795 103.757 105.244C102.984 104.977 102.233 104.653 101.489 104.323C101.128 104.162 100.84 103.909 100.975 103.418C101.245 103.016 101.723 102.969 102.211 102.916C104.239 102.694 106.274 102.592 108.315 102.58C108.742 102.577 109.196 102.667 109.577 102.398C109.827 102.021 109.594 101.697 109.463 101.366C108.673 99.3714 108.039 97.3324 107.501 95.2677C107.467 95.1388 107.467 95.0034 107.453 94.8826C107.89 94.458 108.117 94.3784 108.397 94.6211C108.752 94.9264 109.085 95.2589 109.385 95.6116C110.832 97.3131 112.265 99.0246 113.699 100.736C113.848 100.915 113.966 101.115 114.005 101.171C114.717 101.186 114.895 100.817 115.129 100.551C116.05 99.4987 116.937 98.4205 117.861 97.3713C118.692 96.4278 119.55 95.5032 120.41 94.5814C120.628 94.3473 120.898 94.1558 121.107 93.9762C121.5 94.0124 121.583 94.2257 121.56 94.4583C121.529 94.7701 121.462 95.0819 121.378 95.3856C120.823 97.3987 120.257 99.4092 119.702 101.422C119.643 101.635 119.628 101.858 119.585 102.126C120.402 102.394 121.219 102.465 122.023 102.535C123.617 102.675 125.218 102.737 126.813 102.866C127.777 102.944 128.736 103.088 129.776 103.211C129.856 103.372 130.043 103.575 130.019 103.753C129.994 103.939 129.803 104.163 129.618 104.258C129.281 104.429 128.895 104.515 128.531 104.639C126.341 105.383 124.152 106.124 121.964 106.874C121.788 106.935 121.636 107.053 121.5 107.129C121.356 107.537 121.641 107.76 121.821 108.011C123.168 109.893 124.523 111.77 125.87 113.653C126.084 113.953 126.314 114.255 126.457 114.586C126.554 114.811 126.511 115.088 126.54 115.451C126.158 115.406 125.864 115.431 125.625 115.335C123.979 114.666 122.34 113.979 120.705 113.285C119.91 112.946 119.133 112.57 118.34 112.227C118.087 112.118 117.806 112.064 117.48 111.969C117.061 112.721 117.029 113.481 116.933 114.228C116.741 115.707 116.55 117.187 116.333 118.663C116.304 118.857 116.129 119.032 116.026 119.209C115.372 119.059 115.264 118.577 115.097 118.17C114.631 117.029 114.207 115.875 113.755 114.73C113.354 113.712 112.944 112.696 112.523 111.685C112.403 111.396 112.229 111.125 112.074 110.836C111.415 110.766 110.916 111.083 110.401 111.299C109.029 111.878 107.674 112.492 106.308 113.083C106.047 113.196 105.772 113.31 105.491 113.35C105.277 113.378 105.043 113.291 104.743 113.244Z" fill="#E15642"/>
<mask id="mask0" mask-type="alpha" maskUnits="userSpaceOnUse" x="53" y="6" width="269" height="316">
<path d="M321.528 187.5C321.528 203.008 317.236 220.716 312.391 234.571C307.363 248.948 308.731 269.669 299.415 281.337C291.598 291.127 275.32 289.522 265.096 296.794C243.198 312.369 216.419 321.528 187.5 321.528C163.72 321.528 144.282 316.707 124.92 305.846C118.732 302.375 87.925 316.21 82.3944 311.835C76.3181 307.029 87.552 276.832 82.3944 271.061C61.2085 247.358 53.4722 221.793 53.4722 187.5C53.4722 113.478 113.478 6.60352 187.5 6.60352C261.521 6.60352 321.528 113.478 321.528 187.5Z" fill="white"/>
</mask>
<g mask="url(#mask0)">
<path d="M141.985 87.3172C142.374 83.6204 143.309 79.9822 143.67 76.2831C144.005 72.8539 143.846 69.3801 144.513 65.9901C145.162 62.6946 146.575 59.5658 147.978 56.4658C151.323 49.0784 154.768 41.5411 160.609 35.5347C160.755 35.3843 160.903 35.2356 161.053 35.0874L164.41 41.9674L162.863 33.4072C168.061 28.8932 174.669 25.6725 181.769 24.4735C184.219 24.0597 186.723 23.8953 189.217 23.9743L188.78 32.6128L191.957 24.1594C196.833 24.6688 201.577 26.1245 205.7 28.5123C210.276 31.1627 213.994 34.8459 217.358 38.6918C217.439 38.784 217.519 38.8768 217.599 38.9693L203.741 64.51L219.578 41.3181C220.399 42.3255 221.198 43.3481 221.969 44.3869L216.02 52.6583L223.184 46.0723C225.366 49.1899 227.283 52.4496 228.803 55.8681C229.787 58.0783 230.597 60.338 231.285 62.6305L216.802 74.7895L232.112 65.6162C233.292 70.2448 234.067 74.9763 234.825 79.6812L221.758 84.4938L235.037 81.0025C236.374 89.4377 237.439 98.3338 233.493 106.04C226.606 103.695 219.631 101.559 212.584 99.6353C201.203 96.5282 189.596 93.8601 177.818 93.7517C171.622 93.6948 165.205 94.6107 160.032 97.676C154.859 100.741 151.211 106.302 152.136 111.806C150.841 111.845 149.558 112.185 148.447 112.785C143.36 105.199 141.06 96.1335 141.985 87.3172Z" fill="#FFB500"/>
<path d="M200.749 187.037L154.838 182.76L179.103 336.871L238.982 329.956L205.925 192.577L200.749 187.037Z" fill="#473D3D"/>
<path d="M238.982 281.797C240.647 296.699 241.427 315.053 243.092 329.955C240.037 329.704 236.982 329.453 233.927 329.201C233.73 314.764 226.837 301.387 220.109 288.633C218.106 284.835 216.085 281.01 213.402 277.662C211.795 275.655 209.959 273.834 208.466 271.74C204.278 265.87 203.104 258.308 203.354 251.086C203.604 243.864 205.143 236.754 205.851 229.563C207.76 210.179 203.841 192.703 206.449 173.401C206.174 175.313 207.905 174.501 209.577 175.448C216.532 179.389 223.014 184.174 228.837 189.667C229.95 190.718 231.066 191.831 231.68 193.238C232.449 195 232.341 197.008 232.195 198.926C231.215 211.785 232.446 223.936 234.046 236.732C234.987 244.258 233.872 252.389 234.3 259.962C234.799 268.797 234.049 275.285 238.982 281.797Z" fill="#AC4121"/>
<path d="M195.377 332.76C202.227 322.768 203.054 309.913 203.242 297.775C203.39 288.257 203.286 278.736 202.931 269.223C202.61 260.611 202.069 251.925 199.725 243.637C197.353 235.252 193.203 227.506 189.084 219.836C186.353 214.75 183.6 209.631 179.979 205.144C177.591 202.184 174.831 199.507 172.814 196.28C170.249 192.176 168.925 187.248 165.615 183.726C163.187 181.143 159.904 179.56 156.615 178.262C148.046 174.881 138.875 173.054 129.673 172.894C128.053 172.866 126.396 172.896 124.875 173.456C123.05 174.129 121.58 175.507 120.208 176.892C111.545 185.64 104.636 196.141 100.014 207.583C99.6217 208.555 99.2393 209.567 99.2685 210.616C99.2967 211.631 99.7095 212.594 100.187 213.488C102.367 217.57 106.135 221.145 106.242 225.777C106.287 227.693 105.675 229.553 105.234 231.417C102.945 241.086 105.224 251.265 108.57 260.617C111.915 269.968 116.341 278.974 118.552 288.661C122.058 304.022 119.788 320.067 120.808 335.794C142.11 337.191 163.5 337.229 184.806 335.908C188.61 335.672 193.881 334.943 195.377 332.76Z" fill="#AC4121"/>
<path d="M154.838 145.905C149.366 141.042 142.194 138.156 134.899 137.883C133.967 137.848 132.864 137.944 132.378 138.746C131.668 139.916 132.896 141.285 133.994 142.097C139.914 146.479 145.835 150.86 151.957 155.505C153.025 152.471 154.093 149.438 154.838 145.905Z" fill="#2C2424"/>
<path d="M171.817 249.792C180.929 247.844 190.22 246.746 199.532 246.517C201.748 246.463 204.018 246.466 206.108 247.21C208.198 247.954 210.105 249.583 210.601 251.758C211.146 254.146 209.928 256.563 208.594 258.613C205.888 262.77 202.553 266.468 199.234 270.147C194.614 267.367 190.127 264.365 185.792 261.154C184.374 260.105 182.968 259.029 181.435 258.16C179.553 257.091 177.49 256.339 175.722 255.088C173.954 253.837 172.456 251.91 171.817 249.792Z" fill="#FF928F"/>
<path d="M184.074 199.836C169.663 184.141 158.424 184.07 144.679 177.995C148.783 184.196 152.887 190.397 156.991 196.599C157.309 197.079 157.644 197.576 158.14 197.867C158.783 198.245 159.577 198.21 160.321 198.163C162.936 197.999 165.551 197.835 168.167 197.671C169.276 197.601 170.482 197.558 171.391 198.202C173.378 199.61 172.313 202.819 170.667 204.619C169.022 206.419 166.81 208.23 166.959 210.671C167.067 212.445 168.43 213.847 169.707 215.074C182.028 226.905 186.558 236.648 200.68 246.226C199.223 230.722 191.506 215.705 184.074 199.836Z" fill="#87351C"/>
<path d="M145.733 206.747C135.252 199.701 122.907 195.491 110.329 194.674C108.347 194.545 106.296 194.509 104.446 195.236C101.888 196.24 100.082 198.55 98.6186 200.887C91.6018 212.099 89.7605 226.449 93.7172 239.088C98.402 254.051 110.246 265.478 121.919 275.876C132.693 285.475 144.097 295.019 157.801 299.434C164.003 301.432 170.496 302.314 176.95 303.187C182.353 303.918 187.755 304.649 193.158 305.38C199.157 306.191 205.276 307.001 211.228 305.893C215.418 305.114 219.43 303.38 222.877 300.86C226.989 297.854 237.398 287.959 237.045 282.856C236.745 278.506 226.755 279.994 223.112 277.634C219.469 275.275 215.239 274.048 211.138 272.646C196.86 267.764 183.34 260.337 172.202 250.106C161.065 239.875 163.694 227.484 151.7 213.185C150.212 211.41 147.079 207.652 145.733 206.747Z" fill="#87351C"/>
<path d="M207.891 190.167C214.3 193.637 220.709 197.106 227.119 200.576C221.572 204.882 217.884 211.534 217.155 218.546C219.551 219.426 221.774 220.78 223.659 222.509C224.472 223.254 225.25 224.117 225.531 225.187C225.8 226.21 225.581 227.292 225.362 228.328C223.308 238.03 221.255 247.732 219.201 257.434C215.851 255.595 206.877 247.212 203.307 245.854C200.856 224.848 205.392 210.442 205.932 189.298C207.805 189.966 209.579 190.914 211.177 192.103C210.567 191.827 209.957 191.551 207.891 190.167Z" fill="#87351C"/>
<path d="M203.266 171.644C215.378 175.568 225.023 184.846 233.12 194.726C241.216 204.605 248.285 215.427 257.603 224.148C263.462 229.631 270.159 234.232 275.434 240.285C280.71 246.339 284.522 254.422 282.993 262.325C282.248 266.174 280.304 269.672 278.22 272.985C276.12 276.323 273.785 279.618 270.591 281.914C265.547 285.54 259.003 286.235 252.806 286.146C245.636 286.044 208.064 275.33 200.68 268.54C203.322 265.532 211.274 251.941 209.41 250.011C207.519 248.054 206.745 248.16 204.594 246.497C203.742 245.838 223.781 247.716 224.584 246.996C224.808 246.795 225.113 246.72 225.405 246.651C227.094 246.254 228.782 245.857 230.393 245.63C231.286 238.904 232.18 232.1 231.455 225.354C231.024 221.342 230.026 217.417 229.03 213.508C227.996 209.445 226.962 205.383 225.927 201.32C224.14 194.301 222.105 186.856 216.756 182.006C211.982 177.677 204.856 175.705 203.266 171.644Z" fill="#87351C"/>
<path d="M278.003 273.326C277.732 273.753 277.456 274.179 277.175 274.601C267.293 265.483 257.411 256.365 247.529 247.247C242.247 242.374 236.966 237.501 231.684 232.628C231.707 231.959 231.719 231.29 231.72 230.622C242.757 240.806 253.794 250.989 264.83 261.173C269.221 265.224 273.612 269.275 278.003 273.326Z" fill="#722A19"/>
<path d="M243.229 284.44C241.919 276.229 240.314 268.066 238.412 259.973C237.514 256.15 236.549 252.343 235.522 248.554C235.323 247.823 236.238 247.301 236.77 247.822C246.113 256.962 256.162 265.326 266.349 273.487C268.756 275.414 271.171 277.331 273.587 279.247C273.245 279.612 272.893 279.967 272.529 280.309C265.619 274.833 258.723 269.34 251.998 263.635C247.102 259.481 242.3 255.212 237.66 250.769C240.607 261.984 242.99 273.348 244.793 284.805C244.287 284.69 243.765 284.568 243.229 284.44Z" fill="#722A19"/>
<path d="M241.338 205.254C239.44 204.522 237.545 203.779 235.656 203.022C232.158 201.618 228.68 200.165 225.231 198.643C225.064 198.019 224.891 197.396 224.712 196.774C229.617 198.966 234.587 201.01 239.59 202.968C240.173 203.73 240.755 204.493 241.338 205.254Z" fill="#722A19"/>
<path d="M251.558 217.907C252.125 218.545 252.698 219.176 253.279 219.801C245.341 218.13 237.386 216.539 229.416 215.028C229.288 214.521 229.159 214.014 229.03 213.508C229.023 213.48 229.016 213.453 229.009 213.426C232.393 214.065 235.774 214.716 239.153 215.385C243.292 216.203 247.427 217.046 251.558 217.907Z" fill="#722A19"/>
<path d="M249.491 236.165C255.252 239.689 261.05 243.17 266.694 246.883C272.603 250.771 278.325 255.019 283.285 260.095C283.241 260.716 283.167 261.337 283.06 261.957C283.001 261.926 282.943 261.887 282.886 261.837C276.514 256.178 269.588 251.192 262.361 246.702C255.145 242.219 247.641 238.224 240.028 234.473C237.272 233.115 234.501 231.79 231.72 230.484C231.72 229.928 231.71 229.373 231.692 228.818C236.506 231.072 241.295 233.383 246.025 235.81C241.255 232.908 236.46 230.043 231.618 227.264C231.579 226.657 231.528 226.051 231.464 225.445C231.504 225.468 231.544 225.491 231.585 225.514C237.614 228.959 243.566 232.541 249.491 236.165Z" fill="#722A19"/>
<path d="M237.481 277.027C233.794 269.266 229.753 261.676 225.376 254.287C223.95 251.879 222.486 249.493 220.988 247.128C221.659 247.15 222.264 247.163 222.779 247.163C226.147 252.521 229.337 257.991 232.339 263.565C235.964 270.298 239.445 277.184 242.426 284.246C241.833 284.102 241.225 283.95 240.603 283.792C239.604 281.517 238.545 279.266 237.481 277.027Z" fill="#722A19"/>
<path d="M214.757 275.673C214.105 275.423 213.464 275.172 212.837 274.921C212.812 274.827 212.788 274.733 212.767 274.638C212.293 272.509 212.659 270.375 212.939 268.248C213.693 262.513 214.585 256.798 215.623 251.108C215.878 249.708 216.144 248.309 216.417 246.912C216.927 246.94 217.43 246.968 217.921 246.993C217.219 250.569 216.572 254.156 215.984 257.753C215.549 260.41 215.146 263.072 214.774 265.738C214.455 268.027 213.944 270.406 214.028 272.727C214.062 273.69 214.222 274.849 214.757 275.673Z" fill="#722A19"/>
<path d="M225.526 244.803C227.467 241.641 229.702 238.626 232.197 235.801C232.829 235.085 233.577 234.33 234.581 234.22C235.585 234.11 236.686 235.119 236.159 235.902C236.155 234.666 237.023 233.517 238.175 232.858C239.327 232.199 240.725 231.974 242.088 231.971C242.406 231.97 242.741 231.985 243.013 232.135C243.35 232.323 243.519 232.679 243.643 233.019C244.011 234.029 244.16 235.103 244.081 236.164C245.168 235.775 246.429 236.551 246.827 237.548C247.225 238.544 246.981 239.652 246.64 240.665C246.299 241.679 245.859 242.693 245.779 243.919C240.536 246.548 234.667 248.838 228.734 248.085C228.431 248.046 228.121 247.998 227.856 247.859C227.549 247.7 227.329 247.435 227.117 247.178C226.387 246.291 225.657 245.403 225.526 244.803Z" fill="#FF928F"/>
<path d="M214.019 251.169C215.632 247.994 217.031 244.709 218.204 241.343C215.679 243.887 213.154 246.432 210.629 248.976C211.979 249.46 213.19 250.328 214.019 251.169Z" fill="#D6B09D"/>
<path d="M214.907 266.266C211.082 266.044 207.307 264.994 203.913 263.206C205.267 261.625 206.046 257.732 206.043 258.761C206.039 259.791 212.603 263.712 214.907 266.266Z" fill="#D6B09D"/>
<path d="M202.451 167.272C205.375 172.545 208.302 177.993 209.146 183.972C210.152 191.11 208.099 198.285 206.067 205.198C204.833 209.398 203.408 213.885 199.947 216.54C191.097 203.437 184.83 187.349 188.17 171.866C188.718 169.326 189.615 166.692 191.623 165.058C195.015 162.296 200.76 164.223 202.451 167.272Z" fill="#473D3D"/>
<path d="M224.017 278.097C224.938 278.475 226.075 278.722 227.291 278.92C229.58 280.867 231.869 282.814 234.158 284.762C234.804 285.311 235.45 285.861 236.096 286.41C235.879 286.844 235.63 287.289 235.354 287.741C231.575 284.526 227.796 281.312 224.017 278.097Z" fill="#AC4121"/>
<path d="M99.4515 251.322C97.2857 245.876 95.2405 240.383 93.2874 234.857C93.0121 234.594 92.739 234.328 92.4644 234.064C92.3098 233.244 92.1777 232.42 92.0683 231.593C92.1073 231.631 92.1457 231.669 92.1848 231.707C92.1298 231.549 92.0759 231.39 92.0211 231.232C91.7877 229.353 91.6707 227.46 91.6676 225.565C92.1762 227.081 92.6897 228.595 93.21 230.107C93.6585 231.41 94.1136 232.711 94.5718 234.011C98.9246 238.165 103.397 242.192 107.949 246.122C111.629 249.3 115.362 252.415 119.13 255.486C118.447 254.391 117.772 253.293 117.105 252.19C108.96 238.723 101.829 224.673 93.9123 211.074C94.1132 210.446 94.3271 209.822 94.5545 209.203C98.1065 215.257 101.495 221.413 104.87 227.56C110.59 237.978 116.299 248.452 122.765 258.427C126.271 261.244 129.802 264.029 133.346 266.796C135.72 268.649 138.099 270.493 140.481 272.334C139.781 269.686 138.908 267.121 137.772 264.61C136.389 261.554 134.827 258.577 133.635 255.436C131.187 248.988 130.792 242.037 130.509 235.21C130.415 232.943 130.304 230.687 130.139 228.441C127.576 224.98 124.996 221.531 122.399 218.096C116.567 210.384 110.646 202.741 104.642 195.164C105.165 194.975 105.703 194.842 106.25 194.755C113.49 203.654 121.213 212.132 129.224 220.331C128.935 218.532 128.58 216.739 128.136 214.951C127.062 210.631 125.593 206.424 123.762 202.381C122.582 200.298 121.447 198.19 120.363 196.054C121.083 196.206 121.801 196.368 122.516 196.542C123.446 198.234 124.31 199.962 125.108 201.721C132.903 215.456 142.626 228.009 152.556 240.247C155.644 244.054 158.748 247.852 161.888 251.621C172.923 261.776 184.047 271.835 194.98 282.103C200.817 287.586 206.622 293.104 212.394 298.656C211.772 296.536 211.121 294.425 210.449 292.32C204.552 283.222 198.568 274.182 192.365 265.292C192.036 264.819 191.704 264.348 191.373 263.876C192.339 264.417 193.313 264.944 194.296 265.456C198.457 271.442 202.524 277.494 206.532 283.584C207.221 284.632 207.909 285.681 208.596 286.732C206.544 280.758 204.286 274.857 201.823 269.042C202.472 269.324 203.124 269.598 203.778 269.869C206.764 277.023 209.452 284.304 211.821 291.69C214.29 295.5 216.744 299.319 219.192 303.142C218.747 303.374 218.295 303.594 217.839 303.802C216.381 301.526 214.921 299.251 213.458 296.978C213.831 298.228 214.195 299.48 214.551 300.735C215.621 301.768 216.69 302.803 217.759 303.838C217.263 304.062 216.76 304.271 216.253 304.467C215.947 304.171 215.642 303.875 215.336 303.579C215.466 304.215 214.781 304.653 214.228 304.376C210.055 302.287 206.333 299.44 202.777 296.433C199.093 293.319 195.521 290.068 192.033 286.733C185.104 280.106 178.527 273.114 172.174 265.928C168.301 261.547 164.51 257.093 160.767 252.599C150.784 243.439 140.873 234.198 131.316 224.59C131.441 225.708 131.545 226.83 131.631 227.954C133.814 230.904 135.986 233.864 138.144 236.833C149.301 252.183 160.12 267.784 170.59 283.618C175.081 290.41 179.506 297.246 183.868 304.122C183.22 304.035 182.571 303.947 181.923 303.859C173.366 290.397 164.566 277.092 155.517 263.96C147.79 252.747 139.884 241.658 131.806 230.698C131.812 230.813 131.819 230.927 131.825 231.042C132.159 237.952 132.14 244.984 133.987 251.703C135.767 258.179 139.629 263.816 141.48 270.271C141.811 271.422 142.098 272.603 142.374 273.796C148.04 278.171 153.716 282.534 159.355 286.945C166.307 292.382 173.203 297.897 179.949 303.592C179.028 303.468 178.107 303.343 177.185 303.218C171.972 298.856 166.674 294.596 161.335 290.391C155.222 285.576 149.054 280.831 142.893 276.077C143.931 280.627 145.09 285.187 148.088 288.806C148.701 289.546 147.762 290.516 147.032 289.87C137.086 281.065 128.884 270.56 121.648 259.439C117.66 256.234 113.704 252.988 109.802 249.676C105 245.6 100.277 241.425 95.678 237.118C98.0613 243.746 100.585 250.324 103.299 256.821C101.926 255.041 100.637 253.211 99.4515 251.322ZM190.454 283.116C194.238 286.831 198.124 290.439 202.129 293.91C205.673 296.98 209.327 299.957 213.419 302.246C213.353 302.013 213.29 301.779 213.224 301.546C199.801 288.609 186.199 275.861 172.444 263.28C171.442 262.363 170.44 261.447 169.437 260.531C176.165 268.318 183.112 275.908 190.454 283.116ZM126.485 219.672C124.786 217.917 123.102 216.147 121.433 214.363C124.275 218.099 127.097 221.851 129.898 225.618C129.807 224.692 129.704 223.768 129.586 222.845C128.548 221.791 127.513 220.735 126.485 219.672ZM147.417 238.153C149.536 240.154 151.663 242.147 153.795 244.133C153.731 244.054 153.666 243.975 153.601 243.895C147.635 236.579 141.723 229.21 136.188 221.555C133.426 217.734 130.761 213.838 128.24 209.851C128.407 210.375 128.57 210.899 128.726 211.426C129.769 214.956 130.504 218.533 131.01 222.149C136.378 227.588 141.866 232.909 147.417 238.153ZM129.939 268.792C134.253 274.596 138.967 280.105 144.144 285.142C142.665 281.837 141.884 278.209 141.052 274.656C139.113 273.159 137.176 271.66 135.241 270.158C131.969 267.615 128.705 265.061 125.458 262.484C126.909 264.616 128.399 266.721 129.939 268.792Z" fill="#AC4121"/>
<path d="M139.486 202.999C141.629 204.141 143.716 205.391 145.733 206.747C147.079 207.652 150.212 211.41 151.7 213.184C153.617 215.469 155.159 217.706 156.444 219.892C151.024 214.03 145.378 208.381 139.486 202.999Z" fill="#AC4121"/>
<path d="M219.384 256.531C221.79 253.569 224.737 251.053 228.034 249.147C224.289 249.801 220.544 250.455 216.798 251.11C217.557 252.958 218.315 254.807 219.384 256.531Z" fill="#D6B09D"/>
<path d="M208.237 267.53C209.597 270.468 210.504 273.617 210.917 276.832C208.443 274.316 205.885 271.883 203.251 269.538C205.044 269.042 206.838 268.545 208.632 268.049C208.84 267.991 209.082 267.901 209.136 267.69C209.19 267.48 208.821 267.295 208.237 267.53Z" fill="#D6B09D"/>
<path d="M153.695 131.388C155.768 139.221 154.926 147.798 151.7 154.59C164.562 167.405 176.729 180.927 188.129 195.075C192.129 185.986 194.115 176.007 193.903 166.069C193.872 164.631 193.789 163.162 193.243 161.833C192.582 160.219 191.301 158.957 190.036 157.763C179.095 147.433 166.816 138.539 153.695 131.388Z" fill="#F78683"/>
<path d="M121.534 250.772C116.884 242.543 119.744 232.079 127.92 227.4C136.096 222.721 144.022 227.462 148.671 235.691C153.32 243.919 152.932 252.52 144.756 257.2C136.58 261.879 126.183 259.001 121.534 250.772Z" fill="black"/>
<path d="M120.203 250.772C115.554 242.543 118.413 232.079 126.589 227.4C134.766 222.721 142.691 227.462 147.341 235.691C151.99 243.919 151.602 252.52 143.426 257.2C135.25 261.879 124.853 259.001 120.203 250.772Z" fill="#D6B09D"/>
<path d="M214.095 99.8716C220.611 109.451 218.288 122.312 215.567 133.594C213.766 141.06 211.899 148.528 209.272 155.742C207.584 160.379 205.361 165.174 201.208 167.804C197.128 170.389 191.789 170.363 187.282 168.64C182.775 166.918 178.991 163.685 175.691 160.148C170.771 154.875 166.711 148.791 163.724 142.212C163.376 141.446 163.032 140.658 162.462 140.041C161.79 139.315 160.867 138.893 159.998 138.426C155.281 135.891 151.588 131.488 149.896 126.383C149.18 124.225 148.824 121.818 149.655 119.702C150.486 117.585 152.81 115.949 154.846 116.602C151.815 112.836 150.886 107.663 151.54 102.86C152.193 98.058 154.286 93.5672 156.763 89.41C159.683 84.5096 163.419 79.7558 168.66 77.5601C172.786 75.8318 177.447 75.8719 181.857 76.597C196.272 78.9667 207.298 89.8809 214.095 99.8716Z" fill="#FF928F"/>
<path d="M132.174 138.868C127.841 139.313 124.653 143.356 123.364 147.542C122.075 151.729 122.17 156.207 121.44 160.528C120.461 166.322 118.016 171.746 115.595 177.095C134.492 174.813 154.14 179.464 170.047 189.982C174.925 193.208 179.526 196.999 184.964 199.134C185.999 199.541 187.28 199.849 188.136 199.135C189.326 198.143 188.646 196.217 187.863 194.876C174.435 171.89 155.041 152.469 132.174 138.868Z" fill="#473D3D"/>
<path d="M155.761 136.373C156.146 135.425 157.697 135.843 157.305 136.802C156.969 137.622 156.737 138.575 157.205 139.363C157.523 139.898 158.11 140.189 158.677 140.225C159.243 140.26 159.819 140.09 160.111 139.607C160.602 138.793 160.16 137.689 159.785 136.929C159.401 136.152 160.556 135.466 160.946 136.246C161.56 137.473 162.071 139.039 161.356 140.34C160.841 141.278 159.81 141.77 158.766 141.754C157.705 141.738 156.679 141.242 156.02 140.404C155.108 139.241 155.232 137.675 155.761 136.373Z" fill="#1C1F33"/>
<path d="M222.397 185.164C223.872 181.28 225.347 177.397 226.823 173.513C226.823 172.887 224.515 175.062 223.63 175.698C223.513 175.782 223.422 175.862 223.365 175.935C221.638 178.172 219.911 180.409 218.183 182.646C218.114 182.736 218.042 182.83 218.019 182.942C217.942 183.312 218.39 183.545 218.744 183.672C220.404 184.266 221.845 185.461 222.743 186.987C222.521 186.496 222.097 185.955 222.397 185.164Z" fill="#D6B09D"/>
<path d="M214.914 179.4C215.772 176.545 216.629 173.689 217.487 170.833C215.802 173.551 213.661 175.983 211.184 177.995C212.344 178.565 213.505 179.134 214.914 179.4Z" fill="#D6B09D"/>
<path d="M225.491 188.607C227.005 186.948 228.693 185.449 230.517 184.142C227.326 184.527 224.2 185.441 221.302 186.838C222.549 187.568 223.79 188.309 225.024 189.061C225.214 189.176 225.431 189.351 225.386 189.569C225.34 189.787 224.677 189.498 225.491 188.607Z" fill="#D6B09D"/>
<path d="M210.617 175.758C210.512 173.016 210.406 170.273 210.301 167.531C209.895 170.306 208.933 172.998 207.489 175.397C208.521 175.341 209.559 175.41 210.617 175.758Z" fill="#D6B09D"/>
<path d="M209.816 257.527C213.843 258.359 217.875 259.116 221.909 259.799C216.922 257.034 211.936 254.268 206.95 251.503C207.462 253.677 207.974 255.852 208.486 258.026C208.845 257.729 209.333 257.427 209.816 257.527Z" fill="#D6B09D"/>
<path d="M132.395 184.483C130.233 178.717 127.98 172.985 125.638 167.291C125.741 173.348 125.162 179.416 123.917 185.343C126.319 184.834 128.784 184.625 132.395 184.483Z" fill="#D6B09D"/>
<path d="M124.64 190.34C120.704 185.234 117.694 179.408 115.8 173.234C115.289 179.646 115.412 186.109 116.164 192.497C118.937 191.576 121.709 190.654 124.64 190.34Z" fill="#D6B09D"/>
<path d="M133.86 192.577C134.861 186.205 140.076 180.652 139.366 174.24C134.88 179.839 130.781 185.752 127.111 191.923C129.261 192.078 131.398 192.416 133.86 192.577Z" fill="#D6B09D"/>
<path d="M113.514 190.03C111.195 185.95 108.876 181.871 106.557 177.791C106.851 182.714 107.144 187.637 107.438 192.56C110.057 192.194 112.602 191.298 114.877 189.941C115.338 190.338 114.401 191.59 113.514 190.03Z" fill="#D6B09D"/>
<path d="M139.891 194.423C141.624 189.322 143.122 184.139 144.379 178.898C142.17 183.876 139.647 188.713 136.828 193.368C138.121 193.466 139.38 193.972 140.385 194.796C140.1 194.389 139.634 194.117 139.891 194.423Z" fill="#D6B09D"/>
<path d="M143.391 202.617C144.378 199.863 145.364 197.108 146.351 194.354C144.814 197.358 142.566 199.991 139.847 201.974C141.786 202.626 143.676 203.429 145.493 204.373C144.705 203.805 143.816 203.382 143.391 202.617Z" fill="#D6B09D"/>
<path d="M133.723 197.825C133.189 194.923 132.846 191.986 132.697 189.038C133.446 188.909 133.479 190.132 133.154 190.823C132.128 193.001 131.103 195.178 130.077 197.356C131.43 196.986 132.914 197.124 134.176 197.738C133.792 197.711 133.408 197.684 133.723 197.825Z" fill="#D6B09D"/>
<path d="M215.372 137.634C214.02 146.492 213.716 161.443 200.756 163.399C193.664 164.47 185.639 162.913 179.971 158.795C176.498 156.273 174.326 154.286 171.48 151.19C169.043 148.539 166.305 146.012 164.801 142.849C163.079 139.228 163.154 135.157 163.22 131.226C163.409 119.827 163.273 108.388 164.809 97.0802C165.451 92.3565 166.886 87.0144 171.568 84.8423C174.138 83.6502 177.188 83.6953 180.074 83.9435C186.603 84.5051 193.042 85.9706 199.097 88.2732C205.803 90.8235 214.247 93.9138 216.754 100.077C218.822 105.146 217.761 111.513 217.349 116.762C217.342 116.846 217.335 116.929 217.329 117.012C216.829 123.262 216.319 131.431 215.372 137.634Z" fill="#FF928F"/>
<path d="M202.456 176.237C202.394 176.589 202.067 176.913 201.681 176.755C200.089 176.104 198.057 176.491 196.343 176.365C194.616 176.239 192.929 175.963 191.212 175.893C189.706 175.831 188.24 175.617 188.975 173.771C189.155 173.319 189.541 173.025 189.789 172.626C190.277 171.839 190.514 171.049 190.843 170.165C191.408 168.649 192.321 167.986 193.239 166.728C194.754 164.65 193.632 160.229 196.224 158.805C196.292 158.424 196.764 158.084 197.123 158.378C198.331 159.367 198.45 160.747 198.838 162.187C199.294 163.884 198.726 165.441 199.635 167.012C200.045 167.72 200.648 168.404 200.824 169.219C200.977 169.929 200.759 170.558 200.968 171.282C201.454 172.969 202.791 174.335 202.456 176.237Z" fill="#FFB500"/>
<path d="M179.874 119.164C179.946 118.984 180.057 118.812 180.165 118.652C181.086 117.29 182.684 116.695 184.268 116.616C185.874 116.535 187.632 116.737 189.071 117.491C189.986 117.97 190.96 118.757 191.338 119.76C191.684 120.68 191.457 121.183 190.478 120.549C188.051 118.976 184.8 118.304 182.278 119.716C181.856 119.952 181.45 120.246 180.975 120.328C180.5 120.41 179.924 120.188 179.812 119.717C179.768 119.529 179.802 119.343 179.874 119.164Z" fill="#1C1F33"/>
<path d="M211.371 118.488C209.529 118.502 206.471 120.155 206.373 121.683C206.346 122.104 206.859 122.343 207.165 122.075C208.483 120.922 210.64 121.028 212.246 121.142C213.364 121.221 214.565 121.852 215.635 121.736C215.828 121.715 215.959 121.515 215.979 121.338C216.25 118.929 212.929 118.476 211.371 118.488Z" fill="#1C1F33"/>
<path d="M186.182 118.927C184.582 117.59 183.114 119.06 183.039 120.207C183.005 120.734 183.035 121.287 183.383 121.763C183.731 122.239 184.478 122.609 185.191 122.507C185.916 122.403 186.345 121.873 186.543 121.361C186.836 120.606 186.98 119.594 186.182 118.927Z" fill="#1C1F33"/>
<path d="M211.942 120.998C210.342 119.661 208.874 121.13 208.799 122.278C208.765 122.804 208.795 123.357 209.143 123.833C209.491 124.309 210.238 124.679 210.95 124.577C211.676 124.473 212.105 123.943 212.303 123.431C212.596 122.676 212.74 121.664 211.942 120.998Z" fill="#1C1F33"/>
<path d="M204.898 138.1C204.83 135.655 203.865 132.991 203.308 130.611C202.562 127.42 201.988 124.064 200.717 121.027C200.653 120.872 200.373 120.876 200.336 121.052C199.544 124.863 201.626 129.651 202.424 133.373C202.984 135.985 204.092 138.511 202.264 140.82C201.393 141.92 200.195 142.662 199.157 143.568C198.78 143.897 198.97 144.684 199.527 144.663C202.243 144.559 204.967 140.589 204.898 138.1Z" fill="#99483C"/>
<path d="M198.365 140.251C197.435 140.187 196.602 140.393 195.731 140.697C194.909 140.984 193.934 141.127 193.423 141.911C193.134 142.353 193.53 142.856 194.012 142.795C195.568 142.598 196.889 141.402 198.425 141.112C198.908 141.021 198.851 140.285 198.365 140.251Z" fill="#99483C"/>
<path d="M186.321 106.858C184.727 106.784 183.122 106.97 181.59 107.418C180.56 107.719 179.55 108.144 178.708 108.814C178.541 108.947 178.364 109.157 178.456 109.351C178.512 109.47 178.648 109.524 178.773 109.563C180.166 109.996 181.66 109.841 183.119 109.84C185.706 109.838 188.294 110.341 190.695 111.313C191.313 111.563 191.985 111.849 192.624 111.656C193.604 111.358 193.397 110.056 192.962 109.376C192.369 108.451 191.314 107.954 190.311 107.612C189.025 107.172 187.677 106.921 186.321 106.858Z" fill="#1C1F33"/>
<path d="M221.61 113.358C221.581 113.314 221.546 113.274 221.512 113.236C219.738 111.268 217.227 109.99 214.601 109.716C212.786 109.527 205.838 109.868 206.838 113.16C206.972 113.601 207.372 113.947 207.825 114.014C208.251 114.077 208.672 113.912 209.079 113.773C212.831 112.486 216.932 113.196 220.834 113.894C221.194 113.959 221.736 113.854 221.668 113.493C221.658 113.444 221.637 113.399 221.61 113.358Z" fill="#1C1F33"/>
<path d="M200.953 154.522C199.964 154.387 198.929 154.625 197.913 154.543C196.809 154.454 195.782 154.269 194.793 153.742C194.604 153.641 194.46 153.913 194.568 154.058C195.305 155.051 196.461 155.241 197.626 155.368C198.718 155.488 200.17 155.722 201.109 155.038C201.323 154.882 201.187 154.554 200.953 154.522Z" fill="#D96E4C"/>
<path d="M191.79 151.018C193.852 151.286 196.004 150.777 198.122 150.936C200.423 151.108 202.563 151.481 204.629 152.565C205.025 152.773 205.322 152.206 205.096 151.905C203.548 149.846 201.138 149.464 198.709 149.213C196.434 148.978 193.407 148.509 191.459 149.945C191.015 150.272 191.301 150.954 191.79 151.018Z" fill="#D96E4C"/>
<path d="M158.192 126.729C158.306 127.505 158.725 128.484 158.413 129.223C158.308 129.471 158.047 129.525 157.829 129.437C156.059 128.725 155.713 124.931 156.571 123.424C156.907 122.834 157.706 122.822 157.966 123.515C158.331 124.492 158.038 125.685 158.192 126.729Z" fill="#D96E4C"/>
<path d="M231.862 245.693C232.051 245.693 232.232 245.586 232.317 245.402L236.734 235.892C236.852 235.639 236.743 235.339 236.492 235.22C236.24 235.102 235.942 235.212 235.824 235.464L231.407 244.974C231.29 245.227 231.398 245.528 231.649 245.646C231.718 245.678 231.791 245.693 231.862 245.693Z" fill="#D96E4C"/>
<path d="M239.3 245.987C239.478 245.987 239.65 245.891 239.741 245.723L244.523 236.864C244.655 236.619 244.565 236.312 244.321 236.179C244.077 236.045 243.773 236.136 243.64 236.381L238.859 245.24C238.727 245.485 238.817 245.792 239.06 245.925C239.137 245.967 239.219 245.987 239.3 245.987Z" fill="#D96E4C"/>
<path d="M197.705 32.6616L186.757 67.8315L193.325 32.6616H197.705Z" fill="#DB9C00"/>
<path d="M171.555 32.6616L171.817 69.3605L167.564 34.5966L171.555 32.6616Z" fill="#DB9C00"/>
<path d="M154.443 64.4346L160.364 78.0859L150.49 67.0712L154.443 64.4346Z" fill="#DB9C00"/>
<path d="M210.14 65.1685L202.585 76.9098L211.184 68.0289L210.14 65.1685Z" fill="#DB9C00"/>
<path d="M223.556 70.9233L211.308 81.3258L224.671 72.9687L223.556 70.9233Z" fill="#DB9C00"/>
<path d="M245.779 245.228L256.689 241.538" stroke="#AC4121" stroke-width="2" stroke-miterlimit="10" stroke-linecap="round" stroke-linejoin="round"/>
</g>
<path fill-rule="evenodd" clip-rule="evenodd" d="M136.024 233.091C136.878 232.648 137.883 232.595 138.753 232.948C139.622 233.301 140.261 234.02 140.485 234.9C141.171 237.02 139.738 239.902 136.965 241.822L142.963 247.187C142.963 247.187 143.057 247.262 142.934 247.305L137.184 249.289C137.123 249.307 137.059 249.285 137.028 249.236L132.895 244.729C132.406 245.394 132.22 246.214 132.38 246.994C132.54 247.774 133.034 248.444 133.743 248.845C134.034 249.058 133.489 251.094 131.534 251.769C130.664 252.074 129.711 252.016 128.915 251.608C128.118 251.2 127.553 250.482 127.361 249.632C126.768 247.481 128.364 244.607 131.15 242.726L125.442 237.434C125.442 237.434 125.396 237.3 125.549 237.247L130.932 235.389C131.086 235.336 131.126 235.451 131.126 235.451L135.175 240.019C136.949 238.056 134.743 235.716 134.154 235.465C133.954 235.384 134.126 233.93 136.024 233.091Z" fill="#2C2424"/>
</svg>
