<svg width="20" height="20" viewBox="0 0 20 20" fill="none" xmlns="http://www.w3.org/2000/svg">
<path fill-rule="evenodd" clip-rule="evenodd" d="M2.6223 8.80075C2.6223 8.80075 1.9499 9.03376 2.00299 9.46387C2.05607 9.89392 2.60463 10.0911 2.60463 10.0911L6.17917 11.3097L14.7617 5.78999C14.7617 5.78999 15.2571 5.48537 15.2395 5.78999C15.2395 5.78999 15.3279 5.84376 15.0625 6.09467C14.7971 6.34558 8.3204 12.2416 8.3204 12.2416L8.3075 12.3529L14.1423 16.8832C15.1155 17.3133 15.4695 16.4173 15.4695 16.4173L18 3.49612C18 2.6359 16.8321 3.15558 16.8321 3.15558L2.6223 8.80075Z" fill="#3C3E44"/>
<path fill-rule="evenodd" clip-rule="evenodd" d="M11.5137 13.8258L8.23185 16.2202C8.23185 16.2202 8.0513 16.3589 7.85376 16.272L8.23185 12.2505L11.5137 13.8258Z" fill="#3C3E44"/>
</svg>
