<svg width="20" height="20" viewBox="0 0 20 20" fill="none" xmlns="http://www.w3.org/2000/svg">
<path fill-rule="evenodd" clip-rule="evenodd" d="M7.76134 10.4773C7.80525 10.5314 7.78043 10.9085 7.78043 10.9785L7.78329 18H11.3107C11.3317 15.9065 11.3107 14.6913 11.3107 12.5876C11.3107 12.5568 11.3041 10.5501 11.3136 10.5071C11.3337 10.4726 13.5733 10.4903 13.6506 10.4717L13.6897 10.4605L14 7.55685H11.3222C11.3117 7.12844 11.3241 6.68791 11.3251 6.25764C11.3251 5.8647 11.3155 5.37936 11.5542 5.16469L13.9857 4.92576L13.9819 2.0128C13.5217 1.98573 12.9766 2.01 12.5069 2.01C12.0181 2.01 11.5236 2.00067 11.0434 2.03147C10.127 2.0912 9.38807 2.35814 8.85346 2.80334C8.07828 4.01762 7.77852 2.97508 7.77279 7.55778L6 7.55871L6.00382 10.4754L7.76134 10.4773Z" fill="#3C3E44"/>
</svg>
