<svg width="20" height="20" viewBox="0 0 20 20" fill="none" xmlns="http://www.w3.org/2000/svg">
<path fill-rule="evenodd" clip-rule="evenodd" d="M16.4341 11.3016C17.5389 12.2815 18.3087 13.0797 18.7446 13.696C18.9484 14.0042 19.014 14.2774 18.9414 14.5146C18.8687 14.7528 18.7012 14.8724 18.4399 14.8724L15.5624 14.9978C15.1557 15.026 14.6613 14.7878 14.0802 14.2842C13.498 13.7796 13.1065 13.3597 12.9027 13.0233C12.7867 12.8279 12.5758 12.7161 12.2701 12.6879C11.9654 12.6597 11.7687 12.7997 11.6819 13.1079L11.5941 14.1996C11.5659 14.4242 11.4781 14.5924 11.3328 14.7042C11.1875 14.816 11.0644 14.8792 10.9625 14.8937C10.8606 14.9073 10.6941 14.9278 10.461 14.956C9.70533 14.9842 9.04446 14.9492 8.47742 14.851C7.91038 14.7528 7.3948 14.5506 6.92967 14.2424C6.46454 13.9342 6.09425 13.6542 5.81779 13.4015C5.54134 13.1497 5.14179 12.7433 4.61915 12.1833C3.19449 10.2235 2.13407 8.52896 1.43587 7.10085C1.17455 6.54088 1.02926 6.06452 1 5.67274C1.11603 5.55997 1.33498 5.48997 1.65482 5.46178C1.97466 5.43456 2.43878 5.42678 3.0492 5.44136C3.65962 5.45497 4.02285 5.46178 4.13888 5.46178C4.43047 5.43456 4.66253 5.58816 4.83708 5.92453C5.56354 7.49264 6.27586 8.71076 6.97306 9.5789C7.43819 9.99888 7.7439 9.92888 7.88919 9.36892C7.94771 9.36892 7.97597 8.68257 7.97597 7.31084C8.00523 6.4427 7.642 5.89634 6.88629 5.67274C7.06084 5.22457 7.67126 5 8.71755 5C8.97887 5 9.29871 5.01361 9.67708 5.0418C10.0544 5.07 10.2582 5.08458 10.2865 5.08458C11.1592 5.08458 11.5951 5.41998 11.5951 6.09272C11.5941 6.17632 11.58 6.3795 11.5517 6.70129C11.5225 7.02308 11.5003 7.33126 11.4861 7.62582C11.471 7.91942 11.4639 8.22759 11.4639 8.55035C11.4639 8.87214 11.5073 9.14532 11.5951 9.36892C11.6819 9.59349 11.7979 9.73348 11.9432 9.78889C12.1036 9.67709 12.256 9.5721 12.4013 9.47391C12.5466 9.37572 12.6989 9.21531 12.8593 8.99074C13.0198 8.76715 13.1429 8.59896 13.2296 8.48716C13.3174 8.37439 13.4476 8.1644 13.6221 7.85623C13.7967 7.54805 13.8986 7.35264 13.9278 7.26806C13.9561 7.18446 14.058 6.96767 14.2325 6.61769C14.4071 6.26771 14.4939 6.09272 14.4939 6.09272L14.5594 5.96633C14.6755 5.71454 14.7703 5.56775 14.843 5.52497C14.9156 5.48317 15.0972 5.46178 15.3878 5.46178H18.0908C18.4107 5.46178 18.5993 5.46956 18.6578 5.48317C18.7154 5.49775 18.8031 5.55997 18.9192 5.67274C19.123 5.92453 18.9414 6.47089 18.3743 7.31084C17.8073 8.15079 17.2625 8.85075 16.7398 9.41169C16.0124 10.1953 15.9115 10.8252 16.4341 11.3016Z" fill="#3C3E44"/>
</svg>
