<svg width="20" height="20" viewBox="0 0 20 20" fill="none" xmlns="http://www.w3.org/2000/svg">
<path fill-rule="evenodd" clip-rule="evenodd" d="M16.594 10.3341C16.6501 10.2837 16.6063 10.3522 16.6482 10.2523L16.749 9.90044C17.2901 9.88333 17.6629 9.84243 18.1004 9.66935L19 9.05215C18.7014 9.04835 18.3885 9.12823 17.9044 9.05406L16.9221 8.84769C17.0029 8.79634 17.1275 8.79538 17.2426 8.77827C17.3605 8.7602 17.4622 8.74498 17.5783 8.7174C17.8046 8.66415 17.9701 8.61374 18.1603 8.52625L18.9154 7.78828C18.5701 7.92332 18.2592 7.98038 17.7941 7.98513C17.5687 7.98799 16.749 7.97467 16.6729 7.77306C16.5826 7.53341 16.5835 7.30802 16.3952 6.8601C16.2754 6.5748 16.127 6.30187 15.9606 6.05651C15.6192 5.55058 15.1951 5.13024 14.6948 4.8069L12.6264 4.22774C12.7557 4.10316 13.2436 4.00521 13.4195 3.95766C14.3411 3.7123 14.2621 3.37564 14.0386 3.31288C13.7543 3.23299 13.0591 3.49547 12.7481 3.58962L13.3054 3C12.7253 3.05421 12.3468 3.34236 11.9132 3.61054L12.0929 3.16738C11.547 3.34997 10.5608 4.65284 10.2879 5.17398L9.13054 7.7122C9.03163 7.6713 8.34787 6.96947 7.82482 6.65754C7.36834 6.3846 6.75875 6.0936 6.23475 5.85109C4.97277 5.26623 4.07122 4.91056 2.77977 4.43886C2.7151 5.5734 3.44357 6.19631 4.35177 6.80685L3.24481 6.95235C3.26383 7.43641 3.63757 7.94139 3.92192 8.18294C4.43831 8.6242 4.70839 8.62611 5.18199 8.80489L5.27994 8.8553C4.51629 8.98749 4.74453 8.90285 4.08073 9.3327C4.08929 9.63512 4.74643 10.277 5.2419 10.3874L6.34601 10.53C6.26993 10.6004 6.15011 10.6498 6.06071 10.7078C5.94755 10.7801 5.90095 10.8229 5.82011 10.9199C5.66795 11.1054 5.58902 11.3146 5.68792 11.5704L6.96702 12.1524C6.89854 12.2875 6.48105 12.6232 6.34031 12.7211C5.5757 13.2499 4.716 13.6227 3.62045 13.6702C2.84158 13.7054 2.08744 13.557 1.49212 13.3183C0.805496 13.0435 0.524 12.8143 0 12.4092C0.154062 12.6736 0.502127 13.0397 0.7142 13.2641C2.71795 15.3896 5.96086 16.5631 9.35022 15.9583C11.4196 15.5884 12.7538 14.8742 13.9654 13.9888C14.1651 13.8423 14.6416 13.4153 14.8128 13.2384C15.3396 12.6954 15.8084 12.1134 16.1508 11.4411C16.2535 11.2385 16.6092 10.5386 16.594 10.3341Z" fill="#3C3E44"/>
</svg>
