<svg width="540" height="540" fill="none" xmlns="http://www.w3.org/2000/svg"><g clip-path="url(#clip0)"><path d="M87.85 217.49c-.32.66-.11 1.17.02 1.7.77 3.16 1.6 6.32 2.3 9.5.72 3.18 1.32 6.38 1.98 9.58-.26.25-.42.53-.63.59-.3.07-.68.05-.98-.06-.3-.12-.56-.38-.8-.62-4.25-4.12-8.58-8.17-12.48-12.64-.35-.4-.77-.76-1.18-1.11-.09-.08-.26-.07-.4-.1-.5.31-.6.86-.79 1.37a99.7 99.7 0 01-5.63 12.89c-.3.53-.58 1.07-.94 1.57-.27.37-.67.44-1.16.09a7.5 7.5 0 01-.62-2.45c-.44-3.59-.4-7.2-.5-10.8-.03-1.49-.21-2.97-.34-4.46-.02-.2-.14-.37-.25-.66-.32.01-.65-.03-.94.06-2.09.63-4.15 1.33-6.24 1.92-3.2.9-6.43 1.74-9.65 2.6-.39.1-.81.18-1.2.13-.3-.03-.57-.27-.93-.46a7.36 7.36 0 011.89-2.7l9.39-9.39 2.23-2.22c-.29-.4-.46-.76-.74-1.01-3-2.68-6.03-5.31-9-8a38.47 38.47 0 01-2.96-3.1c-.24-.27-.3-.73-.36-1.12-.03-.16.16-.35.24-.5.62-.35 1.22-.2 1.82-.08 4 .81 7.93 1.9 11.85 3.04 1.5.43 2.98.87 4.6 1.1.39-1.13.53-2.2.57-3.26.17-4.08.72-8.12 1.23-12.16.17-1.35.35-2.7.5-4.04.07-.56.17-1.08.77-1.53.23.13.58.23.75.47.48.65.96 1.32 1.31 2.05 1.07 2.2 2.06 4.44 3.09 6.66 1.22 2.66 2.45 5.3 3.69 7.96.13.3.35.55.5.8.79.06 1.2-.46 1.7-.78 2.82-1.9 5.6-3.87 8.44-5.74 2.16-1.42 4.38-2.76 6.6-4.08.67-.4 1.32-1.01 2.25-.72.5.71.3 1.46.08 2.16-.23.7-.56 1.39-.87 2.06-2.01 4.25-4.34 8.32-6.7 12.38-.37.65-.8 1.25-1.04 2.12.44.2.83.43 1.24.58 3.4 1.23 6.8 2.42 10.18 3.66 1.22.44 2.4.95 3.59 1.48.55.25 1.1.56 1.55.96.25.23.28.69.38.97-.44.7-1.01.92-1.62 1.02a216.81 216.81 0 01-11.3 1.57c-1.48.17-2.99.16-4.5.75z" fill="#2C2424"/><path d="M453.98 345l-1.16-.32c-.35-2.36-.14-4.64-.16-6.92a86.6 86.6 0 01.15-7.1c.17-2.27.32-4.52.25-6.8-1.16-.2-1.99.2-2.83.4-5.04 1.19-10.06 2.42-15.1 3.64-.74.18-1.47.26-1.94-.45-.2-.64.03-1.09.43-1.46 1.08-1 2.12-2.07 3.29-2.98 3.08-2.43 6.23-4.78 9.34-7.16.52-.4 1.17-.66 1.4-1.4-.1-.18-.17-.41-.32-.55-2.82-2.51-5.67-4.99-8.47-7.53-1.6-1.45-3.31-2.79-4.82-4.34-.9-.92-2.54-2.36-2.9-3.6-.53-1.82.86-1.2 1.91-.87 1.9.57 3.78 1.16 5.68 1.69 1.2.33 15.56 4.16 15.67 3.82.14-.41.36-.8.37-1.2.05-1.33 0-2.66.04-4l.54-15.51c.03-.89.1-1.78.94-2.43 1.1.45 1.51 1.41 1.88 2.36.84 2.14 1.62 4.3 2.43 6.44l4.03 10.57c.08.2.24.37.36.54.6.28 1-.12 1.41-.4 3.54-2.45 7.04-4.94 10.61-7.32 2.16-1.44 4.4-2.73 6.64-4.06.49-.29 1.06-.44 1.47-.6.69.26.8.7.68 1.15-.16.56-.4 1.12-.68 1.63-1.64 3.07-3.3 6.12-4.96 9.18-1.17 2.15-2.33 4.3-3.47 6.46-.1.17-.06.42-.08.65.54.6 1.3.7 1.98.94a155.5 155.5 0 0116 6.62c.79.39 1.65.68 2.32 1.49l-.06.96c-.26.15-.44.33-.64.36-2.19.32-4.39.64-6.58.93l-8.36 1.12c-.8.1-1.62.17-2.42.28-.5.07-.98.21-1.62.35.19.6.3 1.09.5 1.54 2.4 5.57 4.82 11.13 7.2 16.7.52 1.23.9 2.5 1.29 3.59-.28.94-.85 1.1-1.46.86a7.32 7.32 0 01-1.7-1.02c-1.8-1.42-3.6-2.85-5.37-4.31-3.87-3.22-7.72-6.47-11.59-9.7-.22-.18-.5-.3-.68-.4-.73.06-.9.6-1.15 1.03-1.62 2.91-3.2 5.85-4.87 8.73-1.33 2.3-2.78 4.54-4.2 6.8-.35.54-.79 1.04-1.22 1.6zM124.73 91.75c-2.08.47-4.05 1.27-6.19 1.52l-.25-.42c.77-.86 1.71-1.46 2.56-2.16.84-.68 1.7-1.32 2.6-2.02-.18-.22-.3-.41-.45-.56l-4.32-4c-.3-.28-.62-.57-.73-.98.06-.27.25-.32.45-.3.38.03.77.04 1.14.14 1.25.35 2.5.73 3.76 1.1l1.1.31c.28-.46.3-.93.37-1.38.27-1.86.5-3.72.75-5.59.08-.52.2-1.04.32-1.6l.54-.1c.4.33.48.76.61 1.15.51 1.53.98 3.08 1.49 4.6.14.43.16.93.6 1.29l.79-.43c1.76-1.03 3.52-2.06 5.29-3.07.28-.16.58-.42.96-.22.23.23.2.5.08.75-.23.48-.47.96-.75 1.42-.65 1.1-1.33 2.16-2 3.24l-.5.85c.17.41.52.4.79.5 1.63.57 3.27 1.12 4.91 1.68.44.15.87.32 1.28.52.14.07.2.28.35.48-.3.18-.5.37-.74.44-1.29.37-2.61.63-3.95.75-1.11.1-2.22.17-3.33.26-.15.02-.28.1-.48.16.1.3.16.55.25.8l1.5 3.86c.16.43.3.87.41 1.32.11.44.2.9.03 1.32-.41.28-.71.05-.97-.16a81.81 81.81 0 01-2.1-1.8c-.67-.58-1.32-1.18-1.98-1.77-.11-.1-.25-.16-.34-.22-.34.01-.44.24-.54.44-.43.86-.85 1.72-1.26 2.59-.34.73-.66 1.47-1.11 2.15h-.46c-.23-.38-.17-.77-.17-1.15l-.04-4.5c0-.37.1-.77-.27-1.2z" fill="#FFB500"/><path d="M456.22 375.12c-1.54.35-3 .94-4.58 1.13l-.19-.32c.57-.63 1.27-1.08 1.9-1.6.62-.5 1.26-.97 1.93-1.5-.14-.16-.22-.3-.34-.4-1.06-1-2.14-1.98-3.2-2.97-.23-.22-.46-.43-.54-.73.05-.2.19-.24.33-.23.28.03.57.04.84.11.94.26 1.86.54 2.8.82l.81.23c.2-.35.23-.7.27-1.03.2-1.38.37-2.76.56-4.14.06-.39.15-.77.24-1.19l.4-.07c.3.24.36.56.45.85.38 1.14.73 2.28 1.1 3.42.1.31.12.68.44.94l.6-.31c1.3-.76 2.6-1.53 3.91-2.28.22-.12.44-.3.72-.16.17.17.15.37.06.55-.17.36-.35.72-.56 1.06-.48.8-.99 1.6-1.48 2.4l-.37.63c.12.3.39.3.58.37 1.21.43 2.43.83 3.65 1.25.32.1.64.23.94.38.1.06.16.2.26.36-.21.13-.36.27-.54.32-.96.28-1.94.47-2.94.56-.82.08-1.64.13-2.47.2-.1 0-.2.06-.35.12.07.21.12.4.19.58.37.96.74 1.9 1.1 2.87.13.32.23.64.31.97.09.33.15.67.03.99-.31.2-.53.03-.72-.12-.53-.44-1.05-.88-1.56-1.34l-1.47-1.3c-.08-.08-.19-.13-.25-.17-.25 0-.33.17-.4.32l-.93 1.92c-.26.54-.5 1.09-.83 1.6h-.34c-.17-.28-.12-.58-.13-.86-.01-1.1 0-2.22-.02-3.33 0-.28.06-.57-.2-.9z" fill="#2C2424"/><path d="M139.09 191.47c.12-.66.1-1.25.34-1.68.5-.86 1.11-1.67 1.76-2.44 1.98-2.4 4-4.75 5.99-7.13.16-.2.26-.47.47-.84-.47-.28-.88-.63-1.36-.81-3-1.1-6.03-2.13-9.02-3.25a51.67 51.67 0 01-4.26-1.87c-.68-.33-1.22-.84-.96-1.83.5-.81 1.4-.9 2.32-1 3.82-.45 7.65-.64 11.5-.66.8 0 1.65.19 2.37-.35.47-.76.03-1.42-.22-2.09a111.96 111.96 0 01-3.66-12.32c-.06-.26-.06-.53-.08-.78.82-.85 1.25-1.01 1.78-.52.66.62 1.28 1.3 1.85 2 2.71 3.45 5.4 6.91 8.09 10.37.28.36.5.77.57.88 1.34.04 1.68-.7 2.12-1.24 1.74-2.12 3.41-4.3 5.16-6.4 1.56-1.9 3.18-3.77 4.8-5.63.42-.47.93-.85 1.32-1.21.74.07.9.5.85.97-.06.63-.19 1.26-.35 1.87l-3.18 12.18c-.11.43-.14.88-.23 1.42 1.54.54 3.08.7 4.59.84 3 .29 6 .42 9 .7 1.82.16 3.63.45 5.58.7.15.33.5.74.46 1.1-.05.38-.41.83-.76 1.02-.64.34-1.36.51-2.05.76l-12.36 4.48c-.34.12-.62.36-.88.51-.27.82.26 1.28.6 1.78l7.59 11.41c.4.61.83 1.22 1.1 1.9.18.45.1 1 .15 1.74-.72-.1-1.27-.05-1.72-.24-3.1-1.36-6.17-2.76-9.25-4.17-1.49-.68-2.95-1.45-4.44-2.14-.47-.23-1-.34-1.61-.53-.8 1.51-.86 3.05-1.05 4.56-.36 2.98-.73 5.97-1.15 8.94-.05.4-.38.75-.58 1.1-1.23-.3-1.43-1.27-1.74-2.1-.87-2.3-1.66-4.63-2.5-6.95-.76-2.06-1.52-4.1-2.31-6.15-.22-.59-.55-1.13-.84-1.72-1.24-.14-2.18.5-3.15.93-2.58 1.16-5.14 2.39-7.7 3.58-.5.22-1.02.45-1.55.53-.4.06-.84-.12-1.4-.22z" fill="#FFCA49"/><path d="M203.1 483.1c-.38.08-.78.18-1.19.23a3.9 3.9 0 01-3.66-1.36 46.37 46.37 0 01-2.56-3.28 309.9 309.9 0 01-11.5-18.05c-1.72-2.83-3.53-5.6-5.3-8.4a366.14 366.14 0 01-15.65-27.59c-1.86-3.57-3.7-7.16-5.47-10.78-1.26-2.55-2.38-5.17-3.6-7.75-.38-.82-.29-1.66-.2-2.49.06-.58.53-.92 1.03-1.17 1.3-.65 2.61-1.32 3.94-1.94 3.4-1.59 6.8-3.17 10.21-4.72 3.37-1.52 6.75-3.03 10.15-4.48 2.22-.94 4.48-1.8 6.75-2.62.82-.3 1.7-.46 2.56-.53 1.35-.12 2.12.4 2.67 1.63.55 1.25 1.08 2.5 1.6 3.76.96 2.35 1.92 4.7 2.84 7.07.4 1.05.72 2.14 1.03 3.22.32 1.14-.04 2.08-1 2.77-.7.49-1.45.9-2.1 1.43-.82.66-1.59 1.38-2.34 2.11-1.14 1.11-1.35 2.49-1.06 3.99a12.3 12.3 0 003.11 6.09 6.04 6.04 0 004.5 2.05c2.34.04 4.68.11 7.02.16.4 0 .82-.03 1.23-.06 1.22-.1 2.1.42 2.6 1.52a86.82 86.82 0 011.55 3.52c.58 1.43 1.12 2.87 1.67 4.3.08.22.15.44.2.67.29 1.06 0 1.93-.9 2.57-.54.39-1.1.74-1.66 1.1a12.5 12.5 0 00-2.58 2.3 4.1 4.1 0 00-.79 4.26c.74 2.29 2.01 4.32 3.3 6.34 1.93 3.05 3.93 6.07 5.85 9.14 1.5 2.42 2.92 4.9 4.08 7.5.45 1.03.83 2.1 1.18 3.17a2.84 2.84 0 01-.84 3.1c-.74.7-1.51 1.39-2.34 2-3 2.25-6 4.49-9.06 6.67a15.96 15.96 0 01-5.27 2.55z" fill="#2C2424"/><path d="M218.5 469.81a31.64 31.64 0 00-7.13-1.28c-2.2-.13-4.4-.33-6.6-.57-2.09-.24-4.1-.82-5.89-1.95a21.1 21.1 0 01-5.56-4.93c-2.02-2.6-3.88-5.31-5.67-8.06a74.3 74.3 0 00-6.77-9.16c-1.22-1.36-2.49-2.67-3.7-4.03a78.92 78.92 0 00-9.64-8.85l-1.7-1.37a344.17 344.17 0 0013.05 22.63c1.77 2.8 3.59 5.57 5.3 8.4 3.69 6.11 7.4 12.2 11.5 18.05a47.2 47.2 0 002.56 3.28 3.9 3.9 0 003.66 1.36c.41-.05.81-.15 1.19-.23a16 16 0 005.27-2.55c3.05-2.18 6.06-4.42 9.06-6.67.83-.6 1.6-1.3 2.34-2 .44-.42.75-.9.9-1.4a1.8 1.8 0 00-.4-.16c-.6-.14-1.19-.34-1.78-.51zM189.9 407.52a4.87 4.87 0 002.44-3.21 6.9 6.9 0 00-.15-3.8c-.1-.37-.14-.76-.3-1.1a5.33 5.33 0 00-.79-1.3c-.6-.69-1.44-.7-2.12-.09-.2.19-.42.4-.53.65-.34.75-.7 1.5-.91 2.27-.47 1.65-.37 3.36-.4 5.05-.02 1.45 1.32 2.34 2.76 1.53zM204.76 436.52c.7-.17 1.2-.6 1.56-1.17a7.16 7.16 0 00.95-5.1l-.06-.22c-.22-.73-.6-1.32-1.42-1.44-.82-.13-1.27.41-1.62 1.05-.7 1.3-1.17 2.69-1.27 4.16-.04.58.01 1.18.15 1.75.21.85.86 1.17 1.71.97z" fill="#453131"/><path d="M137.95 390.58c.09-1 .72-1.66 1.37-2.27.98-.91 2-1.76 3.01-2.64l.7-.61a43 43 0 018.12-6.2c3.3-1.83 6.6-3.68 9.96-5.37 3.71-1.86 7.5-3.57 11.28-5.3a97.52 97.52 0 015.53-2.3c1.37-.52 2.76-.96 4.16-1.38 1.52-.47 3.04-.95 4.6-1.28.96-.2 2-.25 2.98-.18 1.97.14 3.14 1.38 3.8 3.14.47 1.27.86 2.57 1.3 3.86.54 1.57 1.16 3.12 1.61 4.72.5 1.8.9 3.63 1.26 5.47.2 1.05.26 2.13.3 3.2a8.26 8.26 0 01-.8 3.73 6.44 6.44 0 01-2.5 2.65 47.52 47.52 0 01-5.8 3.19c-4.13 1.97-8.24 3.93-12.38 5.87a325.22 325.22 0 01-13.66 5.99c-1.37.56-2.78 1.03-4.17 1.56l-3 1.17-.6.19c-1.63.52-3.3.89-4.99 1.24-1.69.35-3.35.3-4.78-.82a10.4 10.4 0 01-1.76-1.8 32.13 32.13 0 01-3.44-5.74c-1.3-2.67-2.49-5.4-3.72-8.1-.47-1.03.01-1.87 1.13-1.98h.5z" fill="#E6B494"/><path d="M453.77 127.58l-4.15 4.02c-.86.84-1.71 1.7-2.59 2.53-.89.85-1.8 1.67-2.7 2.51l-1.8 1.7c-.72.68-1.43 1.39-2.16 2.07-1.22 1.13-2.46 2.25-3.7 3.37l-1.63 1.51c-1.13 1.05-2.24 2.12-3.38 3.15-1.44 1.3-2.92 2.59-4.37 3.88-.94.84-1.86 1.69-2.8 2.52l-2.8 2.42-2.55 2.22-2.63 2.25-2.34 1.99c-1.36 1.13-2.71 2.28-4.08 3.4-1.28 1.06-2.59 2.1-3.88 3.15-1.48 1.2-2.95 2.4-4.43 3.58l-4.52 3.58a522.76 522.76 0 00-10.79 8.68c-1.3 1.07-2.58 2.19-3.88 3.26-.2.16-.51.26-.76.25a.6.6 0 01-.55-.83c.08-.23.24-.46.42-.62 1.37-1.23 2.74-2.47 4.15-3.66 1.61-1.36 3.25-2.67 4.89-4l6.72-5.38c2.03-1.61 4.07-3.2 6.1-4.83 1.55-1.25 3.09-2.53 4.63-3.8 1.4-1.13 2.79-2.26 4.17-3.41 1.1-.92 2.18-1.87 3.27-2.8 1.2-1.01 2.4-2.01 3.58-3.03.88-.75 1.73-1.52 2.6-2.29 1-.87 2.01-1.74 3.01-2.63.95-.83 1.88-1.67 2.81-2.51l3.55-3.2c.49-.44.99-.88 1.48-1.34l5.1-4.78c1.56-1.46 3.12-2.9 4.67-4.37 1.83-1.72 3.63-3.47 5.47-5.19a88.2 88.2 0 004.86-4.83c.66-.72 1.3-1.45 1.8-2.3.38-.65 1.12-.66 1.39-.03.1.22.04.55-.04.8-.27.82-.89 1.44-1.39 2.11-.23.31-.52.57-.78.86l.03.02zM390.51 213.34l2.38-.72c3.05-.96 6.02-2.1 8.93-3.4a770.4 770.4 0 018.89-3.92c4.86-2.1 9.72-4.19 14.42-6.65 3.1-1.62 6.2-3.22 9.28-4.87a482.8 482.8 0 008.8-4.8c4.35-2.43 8.62-5 12.73-7.82 3.83-2.62 7.64-5.29 11.41-8 1.9-1.35 3.69-2.85 5.54-4.27.42-.33.88-.62 1.36-.85.46-.22.81-.09 1.03.24.2.32.16.67-.24 1.01-.68.59-1.4 1.12-2.1 1.69-3.9 3.17-8.05 6.03-12.17 8.9a159.57 159.57 0 01-12.14 7.88c-4.3 2.46-8.63 4.9-12.99 7.27a274.45 274.45 0 01-16.34 8.32c-2.17 1-4.37 1.93-6.56 2.89-2.64 1.15-5.3 2.26-7.91 3.46a97.56 97.56 0 01-11.51 4.42c-.57.18-1.15.3-1.72.45l-.3.04c-.93.1-1.2-.3-.79-1.27zM411.63 85.02c.26-.05.5-.17.73-.14.3.03.5.27.53.58.03.22.01.46-.02.69a21.7 21.7 0 01-1.68 5.5 109.47 109.47 0 01-5.95 11.74 1405 1405 0 01-9.78 16.75c-3.23 5.47-6.53 10.9-9.8 16.37-2.28 3.83-4.53 7.68-6.87 11.48-1.66 2.68-3.42 5.3-5.15 7.94a291.14 291.14 0 01-3.13 4.65c-.36.53-.77 1.03-1.17 1.53-.1.14-.24.27-.38.37-.37.26-.83.25-1.06 0-.25-.28-.25-.73.01-1.07.33-.44.69-.84.99-1.28 1.21-1.81 2.42-3.62 3.61-5.45 1.53-2.34 3.06-4.68 4.54-7.04 1.23-1.96 2.4-3.94 3.58-5.93l6.38-10.7c2.28-3.81 4.58-7.6 6.85-11.41 2.17-3.63 4.36-7.26 6.47-10.92 2.05-3.56 4.03-7.16 5.99-10.77a65.2 65.2 0 004.04-8.72c.4-1.11.67-2.27 1-3.4.07-.24.17-.47.27-.77zM352.94 116.5c-.33.36-.68.43-.98.25-.38-.22-.6-.83-.4-1.22.63-1.13.94-2.38 1.28-3.61.85-3.02 1.6-6.06 2.45-9.07 1.04-3.69 2.14-7.35 3.19-11.03.85-2.99 1.66-5.98 2.5-8.98.74-2.67 1.52-5.33 2.23-8a197.1 197.1 0 003.12-13.5c.5-2.66.95-5.31 1.2-8 .1-1.22.12-2.46.17-3.69.02-.56 0-1.12.02-1.69.02-.6.25-.87.73-.9.45-.02.76.26.8.86.06 1.15.13 2.31.08 3.46-.2 4.76-1.11 9.43-2.15 14.06-.79 3.53-1.64 7.05-2.57 10.55-1.25 4.68-2.6 9.35-3.92 14.02-1.4 4.91-2.82 9.82-4.21 14.73-.6 2.1-1.12 4.23-1.73 6.32-.46 1.6-1 3.18-1.53 4.77-.09.26-.22.51-.28.67zM308.48 94.28c-.36-.41-.4-1.08-.36-1.7a96 96 0 01.47-5.44c.34-2.85.6-5.7.7-8.58.12-3.9.23-7.8-.06-11.7-.18-2.32-.44-4.64-.67-6.96-.36-3.58-.96-7.12-1.65-10.64a71.18 71.18 0 00-2.5-9.6c-.19-.54-.35-1.08-.48-1.63-.15-.58.01-.95.42-1.09.39-.13.8.08 1.02.61.3.74.58 1.48.83 2.24a85.72 85.72 0 013.13 13.4c.42 2.53.68 5.08 1.02 7.62.5 3.85.7 7.72.74 11.6.03 2.02-.1 4.05-.12 6.07-.04 4-.72 7.92-1.16 11.87-.08.73-.15 1.48-.17 2.22 0 .32.1.65.21.96.16.46.1.86-.19 1.03-.3.19-.77.1-1.18-.28zM265.56 52.17l.15.25a43.31 43.31 0 013.14 7.11c1.46 4.32 2.39 8.77 3.28 13.22.71 3.52 1.42 7.05 2.05 10.58.42 2.37.71 4.77 1.03 7.16.32 2.42.63 4.84.9 7.26.07.63.04 1.28 0 1.92 0 .21-.1.45-.23.63-.19.26-.46.4-.8.3-.37-.1-.5-.38-.5-.7-.03-4.1-.87-8.1-1.44-12.13-.45-3.2-1-6.38-1.6-9.56a192.3 192.3 0 00-3.78-16.58 44.75 44.75 0 00-2.56-6.68c-.3-.66-.6-1.31-.87-1.98a1.13 1.13 0 010-.74c.17-.45.87-.48 1.23-.06z" fill="#FFB500"/><path d="M170.06 400.09c-.7-.53-1.4-1.04-2.08-1.59-1.39-1.13-2.73-2.33-4.14-3.43a16.27 16.27 0 00-5.84-2.86c-2.27-.62-4.62-.73-6.92-1.15-2.37-.43-4.67-1-6.68-2.4-1-.7-1.91-1.52-2.77-2.39l-1.25 1.1.22.26c.51.57 1.09 1.07 1.63 1.6l-.07.1c-.23.01-.46.05-.69.04-1.12-.02-2.22.08-3.29.37-.12.25-.2.53-.23.84h-.48c-1.13.12-1.61.96-1.14 2 1.23 2.7 2.42 5.42 3.72 8.09.97 2 2.06 3.96 3.44 5.73.51.67 1.1 1.3 1.76 1.81 1.43 1.12 3.1 1.17 4.78.82 1.68-.35 3.36-.72 5-1.24.2-.06.4-.12.59-.2l3-1.16c1.4-.53 2.8-1 4.18-1.56 2.37-.97 4.72-1.98 7.07-3.01l1.37-.6a1.58 1.58 0 00-.25-.38c-.26-.3-.6-.54-.93-.8z" fill="#DE9C71"/><path d="M185.57 376.63c-.27-.34-.6-.65-.96-.9-.59-.41-1.47-.5-1.99 0-.25.24-.38.57-.5.9-1.31 3.68-2.15 8.27-.99 12.1.32 1.04.85 1.78 2.03 2.05.98.23 1.7-.01 2.34-.7a6.45 6.45 0 001.65-3.66c.34-2.74.42-7.3-1.58-9.79z" fill="#F2C6AA"/><path d="M362.46 367.63c-.36-.43-.75-.85-1.07-1.31a30.8 30.8 0 00-5.82-6.23 246.04 246.04 0 01-11.05-9.71 93.09 93.09 0 01-6.89-7.16c-3.3-3.81-6.53-7.67-9.75-11.54-2.41-2.9-4.78-5.85-7.1-8.82a176.8 176.8 0 01-5.42-7.2 301.21 301.21 0 01-6.82-10.06c-2.64-4.08-5.2-8.2-7.7-12.36-2.1-3.5-4.12-7.04-6.04-10.64-3.12-5.8-6.14-11.66-9.17-17.52-1.03-2-2.02-4.03-2.94-6.09-1.23-2.75-2.4-5.54-3.56-8.33-.83-1.98-1.64-3.97-2.41-5.97-.74-1.91-1.41-3.84-2.11-5.77l-.57-1.59c-.44-1.17-.9-2.33-1.32-3.52-.49-1.4-.93-2.82-1.4-4.22-.52-1.53-1.09-3.04-1.6-4.57a154.73 154.73 0 01-3.3-11.29c-1.04-4.23-2.02-8.49-3.03-12.73l-.06-.3-.8-4.38-.52-2.8-.38-2.2c-.17-1.05-.32-2.11-.5-3.17-.2-1.03-.41-2.06-.6-3.1l-.4-2.27c-.18-1.1-.35-2.22-.55-3.33-.17-.98-.38-1.96-.55-2.94-.1-.58-.17-1.16-.25-1.75-.16-1.19-.3-2.38-.47-3.57-.14-1.1-.35-2.18-.45-3.27-.23-2.32-.41-4.64-.6-6.96-.07-.67-.46-1.12-1.07-1.22-.65-.1-1.14.17-1.42.8-.1.2-.17.42-.28.72-1.02.1-1.36.84-1.66 1.63l-.16.44c-.63 1.57-1.2 3.16-1.9 4.7-1.06 2.3-2.26 4.55-3.33 6.85-1.28 2.74-2.5 5.5-3.72 8.27a108.4 108.4 0 01-3.63 7.56l-1 1.9c-.86 1.7-1.7 3.4-2.58 5.07-1 1.94-2.03 3.86-3.06 5.78-1.06 1.97-2.1 3.95-3.2 5.88-.7 1.23-1.49 2.4-2.25 3.59l-1.46 2.17c-1.02 1.5-2.06 3-3.07 4.52-.66.98-1.27 1.99-1.94 2.96-.62.91-1.25 1.82-1.93 2.68-1.2 1.52-2.4 3.01-3.64 4.48-1.8 2.14-3.58 4.3-5.45 6.38-3.06 3.4-6.18 6.75-9.3 10.09a58.66 58.66 0 01-3.25 3.18c-1.84 1.68-3.72 3.32-5.58 4.98-.47.42-.94.87-1.4 1.3-1.51 1.4-2.97 2.86-4.53 4.2-3.08 2.63-6.22 5.22-9.35 7.81-1.14.95-2.32 1.87-3.48 2.8-1.9 1.52-3.87 2.99-5.72 4.57-3.1 2.63-6.22 5.22-9.53 7.57-2.64 1.88-5.26 3.78-7.92 5.62a329.3 329.3 0 01-7.6 5.13c-3.81 2.49-7.6 5-11.49 7.37-3.18 1.93-6.46 3.7-9.73 5.48-2.14 1.16-4.34 2.21-6.51 3.32-4 2.03-7.68 4.58-11.51 6.87-2.28 1.36-4.46 2.86-6.7 4.27-1.65 1.03-3.36 1.99-5.01 3.03a65.55 65.55 0 00-6.36 4.61c-1.48 1.22-3.04 2.36-3.88 4.2-.55 1.22-1.12 2.4-1.42 3.73a34.52 34.52 0 00-.79 7.49c0 1.89.14 3.78.3 5.67.12 1.24.37 2.48.57 3.72.2 1.18.34 2.38.6 3.55.51 2.2 1.07 4.4 1.64 6.58.22.85.5 1.67.8 2.49.52 1.34 1.07 2.66 1.6 3.99.82 2.07 1.7 4.12 2.77 6.08 1.2 2.18 2.44 4.34 3.67 6.5a52.93 52.93 0 005.88 8.27 98.3 98.3 0 005.75 6.01 45 45 0 002.66 2.4l-.06-.26 19.6-4.89 1.1 4.42.42-.23c1.98-1.1 3.9-2.28 5.9-3.34 3.54-1.88 7.11-3.69 10.67-5.52 1.39-.72 2.76-1.48 4.18-2.14 1.79-.84 3.62-1.57 5.42-2.39 2.15-.96 4.28-1.99 6.43-2.96 1.7-.76 3.43-1.5 5.15-2.21.95-.4 1.92-.72 2.89-1.06.7-.25 1.41-.46 2.1-.73a244.1 244.1 0 004.08-1.61c1.52-.62 3.03-1.26 4.55-1.86 1.1-.43 2.2-.83 3.32-1.22.9-.3 1.81-.56 2.71-.86 1.07-.35 2.14-.73 3.2-1.08 1.52-.5 3.04-.96 4.54-1.48 1.3-.45 2.59-.97 3.9-1.41a124.3 124.3 0 015-1.56c2.24-.65 4.5-1.26 6.76-1.85.82-.21 1.66-.31 2.49-.5 2-.43 4.02-.88 6.02-1.33l8.87-2.03.38-.08 4.63-.7c1.22-.2 2.43-.4 3.65-.56 1.19-.17 2.39-.3 3.58-.45l3.2-.38 3.68-.38 4.81-.52 4.13-.44c1.63-.18 3.26-.38 4.89-.52 2.27-.2 4.55-.36 6.83-.5 2.38-.15 4.76-.34 7.14-.37 3-.04 6.01.04 9.02.1 2.05.03 4.1.09 6.16.17 2 .08 4 .21 6 .31 3.11.15 6.23.22 9.32.45 3.85.29 7.69.66 11.52 1.07 4.71.5 9.36 1.35 13.96 2.49 2.57.64 5.14 1.28 7.69 2 4 1.1 8 2.3 11.9 3.73 3.5 1.29 7.04 2.47 10.56 3.69.85.3 1.71.56 2.58.8.9.26 1.54-.06 1.94-.92.05-.11.1-.23.17-.34.41-.7.29-1.32-.2-1.92z" fill="#FF928F"/><path d="M197.96 251.48c-.16.55-.16 1.18-.67 1.6-.1.1-.1.4-.06.58.1.44 1.15 1.05 1.56.91.2-.07.38-.25.5-.42.1-.14.08-.34.13-.59a80.52 80.52 0 0110.12-6.37c4.28-2.16 8.63-4.2 12.8-6.6 1.6-.92 3.17-1.89 4.68-2.96a41.2 41.2 0 004.84-4.17c2.37-2.3 4.4-4.89 6.14-7.68.97-1.56 1.8-3.22 2.7-4.84a43.5 43.5 0 002.83-6.4c1.06-3 2.55-5.81 4.03-8.63.58-1.11 1.1-2.25 1.7-3.37.57-1.08 1.13-2.18 1.8-3.22 1-1.58 2.12-3.08 3.12-4.67a68.5 68.5 0 002.84-4.94 8.36 8.36 0 001.07-4.52c-.12-1.42-.37-2.84-.6-4.25-.1-.63-.3-1.25-.43-1.88-.3-1.5-.52-3.03-.86-4.52-.64-2.73-1.33-5.44-2.03-8.16a5.84 5.84 0 00-.6-1.4 2.3 2.3 0 00-1.14-1.05c-.54 1.37-1.06 2.76-1.67 4.1-1.06 2.3-2.25 4.54-3.33 6.84-1.27 2.74-2.5 5.5-3.72 8.28-1.12 2.56-2.3 5.09-3.62 7.55-.34.64-.68 1.27-1 1.91-.86 1.69-1.7 3.39-2.58 5.07-1.01 1.94-2.04 3.85-3.07 5.78-1.06 1.96-2.09 3.94-3.2 5.88-.69 1.23-1.49 2.4-2.25 3.58-.47.74-.96 1.46-1.45 2.18l-3.08 4.51c-.66.98-1.27 2-1.93 2.97-.62.91-1.26 1.82-1.94 2.68-1.19 1.51-2.4 3-3.64 4.48-1.8 2.14-3.58 4.3-5.45 6.38-3.06 3.4-6.18 6.74-9.3 10.08-.87.94-1.79 1.83-2.73 2.7v.18c-.04.8-.28 1.62-.51 2.4zM343.6 363.75a28.49 28.49 0 00-3.5-6.14c-1.55-2.2-3.12-4.4-4.73-6.55a65.2 65.2 0 00-5.89-6.82c-1.45-1.46-2.97-2.84-4.46-4.25-.18-.17-.33-.37-.5-.56.26.09.54.15.77.27.47.26.92.57 1.39.84.38.21.75.15.97-.13.21-.25.23-.6 0-.92-.13-.17-.3-.3-.44-.43-.7-.68-1.62-.99-2.5-1.35-1.89-.8-3.8-1.55-5.87-1.82a82.4 82.4 0 01-3.2-.5 27.02 27.02 0 00-9.11-.26c-1.75.3-3.49.5-5.18 1.12a39.52 39.52 0 00-5 2.19c-1.52.8-3 1.69-4.54 2.44a84.38 84.38 0 01-9.42 3.96c-1.79.62-3.57 1.3-5.4 1.78-2.6.69-5.26 1.22-7.88 1.83l-.16.03-5.83 1c-1.3.21-2.58.43-3.88.6a243.27 243.27 0 01-9.47 1.05c-1.33.12-2.66.2-3.99.3-.59.06-1.1.47-1.18.96-.09.54.23.86.64 1.13.15.1.3.2.47.27.78.32 1.55.69 2.36.92 1.83.52 3.67 1.01 5.52 1.45l3.44.8.85-.1c2.27-.18 4.55-.35 6.83-.49 2.38-.15 4.76-.33 7.14-.37 3-.04 6.01.04 9.02.1 2.05.03 4.1.09 6.16.17 2 .08 4 .22 6 .31 3.11.15 6.22.22 9.32.45 3.85.29 7.69.67 11.52 1.08 4.7.5 9.36 1.34 13.96 2.48 2.57.64 5.13 1.29 7.69 2 2.86.8 5.7 1.63 8.52 2.56-.12-.47-.27-.95-.44-1.4z" fill="#E56D69"/><path d="M282.43 329.95a5.55 5.55 0 00-2.75-.64c-1.56.07-3.13.13-4.66.4-1.43.26-2.82.77-4.22 1.2-.66.2-1.3.44-1.95.68-.8.28-1.59.58-2.4.84-1.01.33-2.06.62-3.08.94a18.86 18.86 0 00-5.13 2.6c-.52.35-1 .82-1.38 1.32-.93 1.18-.43 2.41.55 3.05.76.5 1.54.92 2.46 1.04.84.11 1.68.26 2.52.36 1.3.14 2.6.08 3.9-.18 1.48-.29 2.98-.5 4.47-.73 1.8-.5 3.52-1.13 5.23-1.85a33.68 33.68 0 005.24-2.74 7.27 7.27 0 002.65-2.62c.27-.52.4-1.04.27-1.63-.2-1-.87-1.6-1.72-2.04zM221.11 247.24c-2.47-.22-4.77.29-6.85 1.6a66.69 66.69 0 00-4.92 3.43c-.85.65-1.61 1.44-2.3 2.25-.96 1.1-.49 2.68.88 3.17.28.1.59.17.9.2 1.2.1 2.4-.13 3.86-.37.96-.39 2.2-.82 3.37-1.38a23.2 23.2 0 006.05-3.93c.35-.34.66-.72.94-1.11 1-1.35-.02-3.7-1.93-3.86z" fill="#FFA3A1"/><path d="M254.13 354.82c-3.4-4.5-6.74-9.06-10-13.68a376.5 376.5 0 01-18.3-28.46c-11.22-19.41-20.4-40.1-25.8-61.9-.22-.86-.46-1.76-.78-2.6l-1.29 1.2c-1.84 1.69-3.72 3.32-5.58 4.99-.47.42-.94.87-1.4 1.3-1.51 1.4-2.97 2.86-4.53 4.2-3.09 2.63-6.22 5.22-9.35 7.8-1.14.96-2.32 1.88-3.48 2.81-1.9 1.52-3.87 2.98-5.72 4.57a139.7 139.7 0 01-9.53 7.57c-2.64 1.88-5.26 3.78-7.92 5.62a329.3 329.3 0 01-7.6 5.13c-3.81 2.48-7.6 5-11.49 7.37-3.17 1.93-6.46 3.7-9.73 5.48-2.14 1.16-4.34 2.21-6.51 3.32-4 2.03-7.68 4.58-11.51 6.87-2.28 1.36-4.46 2.86-6.7 4.26-1.65 1.04-3.36 2-5.01 3.04a65.55 65.55 0 00-6.36 4.6c-1.48 1.23-3.04 2.37-3.88 4.2-.55 1.22-1.12 2.41-1.42 3.74a34.52 34.52 0 00-.79 7.48c0 1.9.15 3.79.3 5.68.12 1.24.37 2.48.57 3.71.2 1.2.34 2.39.6 3.56.51 2.2 1.07 4.4 1.64 6.58.22.84.5 1.67.81 2.49.5 1.33 1.06 2.66 1.59 3.99.82 2.07 1.7 4.12 2.77 6.07 1.2 2.18 2.44 4.34 3.67 6.5a52.93 52.93 0 005.88 8.28c1.81 2.1 3.77 4.07 5.75 6a44.23 44.23 0 004.13 3.59l18.52-4.62.68 2.7.4-.22c1.97-1.1 3.9-2.29 5.9-3.34 3.53-1.88 7.1-3.69 10.66-5.53 1.39-.72 2.76-1.47 4.18-2.13 1.79-.84 3.62-1.57 5.42-2.39 2.15-.97 4.28-2 6.43-2.96 1.7-.76 3.43-1.5 5.15-2.21.95-.4 1.92-.72 2.89-1.06.7-.25 1.41-.46 2.1-.73a244.1 244.1 0 004.08-1.61c1.52-.62 3.03-1.26 4.55-1.86 1.1-.44 2.2-.83 3.32-1.22.9-.3 1.81-.56 2.71-.86 1.07-.35 2.14-.73 3.2-1.08 1.52-.5 3.04-.97 4.54-1.48 1.3-.45 2.59-.97 3.9-1.41a124.3 124.3 0 015-1.56c2.24-.65 4.5-1.26 6.76-1.85.82-.21 1.66-.32 2.49-.5 2-.43 4.02-.88 6.02-1.33 2.96-.67 5.91-1.36 8.87-2.04l.38-.07 4.63-.7c1.22-.2 2.43-.4 3.65-.57 1.19-.16 2.39-.3 3.58-.45l3.2-.37 3.68-.38 4.81-.52 4.13-.44c1.04-.12 2.08-.24 3.12-.34-.8-.87-1.54-1.65-1.98-2.23z" fill="#BC564C"/><path d="M114.4 311.39c-1.16 2.3-1.9 4.67-1.57 7.27.2 1.52.45 3.04.78 4.55a81.3 81.3 0 002.85 9.74 26.97 26.97 0 001.95 4.55l-.3.77c-.22.63-.47 1.25-.65 1.89-.15.55.05.98.43 1.1.4.13.73-.09.92-.7.82-2.7 2.27-5.04 3.99-7.25 2.47-3.18 5.57-5.68 8.77-8.05 2.9-2.16 6.09-3.83 9.27-5.51 5.27-2.8 10.4-5.82 15.13-9.48 2.68-2.06 5.26-4.2 7.38-6.84a42.75 42.75 0 004.8-7.07 37.97 37.97 0 012.12-3.58 54.04 54.04 0 015.5-7.23 43.2 43.2 0 015.92-5.5 146.03 146.03 0 0011.25-8.87 35.46 35.46 0 006.35-6.16c1.1-1.42 2.38-2.71 3.4-4.18l.09-.12c-1-3.29-1.93-6.6-2.76-9.94-.21-.87-.45-1.76-.77-2.6l-1.29 1.2c-1.84 1.69-3.72 3.32-5.58 4.98-.48.43-.94.88-1.4 1.31-1.51 1.4-2.97 2.86-4.53 4.2-3.09 2.63-6.22 5.21-9.35 7.8-1.14.96-2.32 1.88-3.48 2.81-1.91 1.52-3.87 2.98-5.72 4.56-3.1 2.64-6.22 5.22-9.53 7.58-2.64 1.88-5.26 3.78-7.92 5.62a333.68 333.68 0 01-7.6 5.13c-3.82 2.48-7.6 5-11.49 7.37-3.18 1.93-6.46 3.7-9.73 5.48-1.98 1.07-4 2.05-6.01 3.06-.45.68-.86 1.38-1.23 2.11zM246.29 354.97c-3-.86-5.97-1.77-9-2.44a44.71 44.71 0 00-20.19.22 56.5 56.5 0 00-7.68 2.51 408.4 408.4 0 00-8.71 3.53c-3.05 1.29-6.03 2.75-9.21 3.71-2.76.83-5.5 1.7-8.34 2.24-2.15.4-4.31.7-6.48.9-3.87.35-7.73.67-11.6.97-3.44.26-6.83.87-10.18 1.68-1.67.4-3.3.96-4.94 1.5a32.78 32.78 0 00-5.66 2.42 47.82 47.82 0 00-9.28 6.71c-1.1 1-2.21 2-3.02 3.28-.19.3-.36.63-.47.96-.1.3.04.56.32.72.28.16.56.13.78-.09.15-.14.27-.31.37-.49.94-1.58 2.37-2.68 3.71-3.86l.2.04c.03.32.1.64.08.96-.1 1.26.16 2.44.7 3.58.38.78.73 1.59 1.11 2.37.68 1.37 1.41 2.7 2.42 3.87l2.1-1.09c1.4-.72 2.77-1.47 4.19-2.13 1.79-.84 3.62-1.57 5.42-2.39 2.15-.97 4.27-2 6.42-2.96 1.71-.76 3.43-1.5 5.16-2.21.95-.4 1.92-.72 2.88-1.06.7-.25 1.42-.46 2.11-.73a235.7 235.7 0 004.07-1.61c1.52-.62 3.03-1.26 4.56-1.86 1.1-.44 2.2-.83 3.32-1.22.9-.3 1.8-.56 2.7-.86 1.08-.35 2.14-.73 3.21-1.08 1.51-.5 3.03-.97 4.54-1.48 1.3-.45 2.59-.97 3.9-1.41 1.65-.55 3.31-1.08 4.99-1.56 2.25-.65 4.5-1.26 6.77-1.85.81-.21 1.66-.31 2.48-.5 2.01-.43 4.02-.88 6.03-1.33l8.86-2.03.38-.08 4.63-.7c1.22-.2 2.43-.4 3.65-.56 1.2-.17 2.39-.3 3.59-.45l3.2-.38 3.67-.38 4.82-.52 4.12-.44 1.78-.2-.28-.06c-2.74-.71-5.49-1.37-8.2-2.16z" fill="#99332A"/><path d="M202.98 272.29a21.45 21.45 0 00-5.4 2.74c-3 2.04-5.98 4.08-8.65 6.55-3.46 3.2-6.47 6.75-8.55 11a14.8 14.8 0 00-1.47 4.29 6.54 6.54 0 000 1.75c.16 1.33 1.3 2.26 2.85 1.8.56-.26 1.16-.45 1.66-.8 1.27-.85 2.56-1.71 3.73-2.7 2.63-2.22 5.19-4.53 7.8-6.78 2.74-2.37 5.38-4.84 7.9-7.44a24.6 24.6 0 003.93-5.12c.43-.76.8-1.56.96-2.4l-1.22-3.26a2.76 2.76 0 00-.9-.1 9.8 9.8 0 00-2.64.47zM177.73 358.63c.84.22 1.7.45 2.56.51a23 23 0 007.31-.79c1.28-.39 2.56-.77 3.83-1.18 1.59-.5 3.12-1.16 4.5-2.11a8.33 8.33 0 002.24-2.09c.78-1.14.16-2.41-.9-2.85a5.65 5.65 0 00-2.42-.4c-2 .09-3.98.39-5.9.98-1.65.5-3.28 1.05-4.9 1.59-.56.19-1.11.4-1.65.65a80.5 80.5 0 00-3.3 1.65c-.7.37-1.39.77-2.01 1.26-.67.52-.76 1.2-.4 1.93.21.45.6.73 1.04.85z" fill="#CC5D52"/><path d="M146.53 384.5c-1.99-2.25-3.94-4.53-5.9-6.81-.38-.45-.77-.9-1.1-1.38-2.2-3.25-4.44-6.49-6.57-9.78-2.23-3.46-3.86-7.24-5.58-10.96a146.43 146.43 0 01-2.96-6.85 81.34 81.34 0 01-2.08-5.7c-.79-2.47-1.48-4.98-2.18-7.47-1.1-3.9-2.18-7.81-3.27-11.72a77.11 77.11 0 01-2.08-10.73c-.14-1.06-.26-2.13-.38-3.2-3.72 1.97-7.2 4.35-10.82 6.51-2.27 1.36-4.46 2.86-6.7 4.26-1.65 1.04-3.36 2-5 3.04a65.51 65.51 0 00-6.37 4.6c-1.48 1.23-3.04 2.37-3.87 4.2-.56 1.22-1.13 2.41-1.42 3.73a34.53 34.53 0 00-.8 7.5c0 1.88.15 3.78.31 5.67.1 1.24.36 2.48.56 3.71.2 1.2.34 2.39.61 3.56.5 2.2 1.06 4.4 1.63 6.58.22.84.5 1.67.81 2.49.5 1.33 1.06 2.66 1.59 3.99.82 2.07 1.7 4.12 2.77 6.07 1.2 2.18 2.44 4.34 3.67 6.5a52.99 52.99 0 005.88 8.28c1.81 2.1 3.77 4.07 5.75 6a44 44 0 004.31 3.73 13.2 13.2 0 003.57 1.9c.81.28 1.66.4 2.5.59.85.18 1.6.37 2.48.2.6-.11 1.2-.33 1.78-.54l1.88-.7c.62-.22 1.15-.48 1.73-.78a260.1 260.1 0 004.39-2.35l1.09-.6c1.98-1.1 3.9-2.28 5.9-3.34 3.53-1.88 7.1-3.69 10.66-5.52 1.4-.72 2.77-1.48 4.18-2.14l1.22-.55c-.11-.1-.23-.22-.38-.32a11.98 11.98 0 01-1.8-1.66z" fill="#E15642"/><path d="M228.2 339.2a298.72 298.72 0 01-16.69-32.52c-1.4-3.17-2.83-6.32-4.22-9.5-.95-2.18-1.88-4.38-2.77-6.6-1-2.47-1.88-4.99-2.89-7.46-1.42-3.47-2.65-7-3.74-10.6-.46-1.5-.98-2.97-1.48-4.46-.49-1.46-1.05-2.9-1.47-4.37-.58-2.05-1.05-4.13-1.57-6.2a7.1 7.1 0 01-.26-.9l-.58-2.36-.15.14-1.23 1.13.43 1.9a99.1 99.1 0 002.8 9.86c1.06 3.13 2.06 6.29 3.12 9.43.58 1.7 1.2 3.38 1.83 5.06.76 2.02 1.57 4.02 2.36 6.02.93 2.34 1.78 4.7 2.78 7.02 2 4.61 4.07 9.2 6.1 13.8a280.66 280.66 0 007.56 15.84 265.17 265.17 0 009.66 17.26c3.03 4.92 5.84 9.97 9.21 14.67l1.84 2.55 1.54-.18c.05 0 .11 0 .17-.02-1.93-2.85-3.87-5.69-5.71-8.59-2.29-3.6-4.49-7.25-6.65-10.92zM203.47 337.18c-1.78-3.18-3.72-6.28-5.43-9.49a206.02 206.02 0 01-10.52-22.34c-.84-2.07-1.6-4.17-2.43-6.24a124.24 124.24 0 01-3.09-8.7c-.46-1.47-.96-2.93-1.45-4.4-.74-2.18-1.59-4.34-2.19-6.56-.95-3.51-1.94-7.01-2.76-10.56l-1.4 1.13 1.08 4.35c.56 2.11 1.12 4.22 1.74 6.31.46 1.55 1 3.08 1.5 4.61l2.15 6.27c.66 1.94 1.26 3.91 2 5.83 1.51 3.98 3.05 7.95 4.69 11.88 1.28 3.1 2.64 6.19 4.12 9.2 2.75 5.6 5.65 11.1 8.79 16.5 3.62 6.25 7.37 12.4 11.25 18.49 1.97 3.08 4.08 6.08 6.16 9.1l1.62-.38c-2.75-4.1-5.57-8.15-8.14-12.38-2.56-4.2-5.27-8.32-7.69-12.62zM379.81 303.26c4.88 16.6 8.11 33.97 5.2 49.8-1.4 7.5-5.56 14.9-12.43 18.24-21.29 10.37-42.55-13.59-53.7-28.37-23.45-31.05-43.62-64.95-56.85-101.62-5.5-15.2-9.91-30.97-11.62-47.1-1.58-14.83-2.97-34.06 7.73-46.16 13.6-15.39 35.7-1.7 46.95 9.47 11.34 11.24 20.34 24.6 28.5 38.32a429.94 429.94 0 0136.2 77.58c3.24 9.26 6.95 19.4 10.02 29.84z" fill="#2C2424"/><path d="M366.56 366.7c-1.4.4-2.79.36-4.17.18a42.01 42.01 0 01-10.43-2.95 34.4 34.4 0 01-7.56-4.44c-1.95-1.48-3.95-2.89-5.68-4.62a77.89 77.89 0 01-9.5-11.3 11.93 11.93 0 01-1.92-4.18c-.09-.4-.16-.81-.11-1.21.12-1.1 1-1.63 2-1.19.63.28 1.24.65 1.76 1.1 1.65 1.42 3.3 2.86 4.87 4.37 1.63 1.57 3.12 3.28 4.74 4.85a83.4 83.4 0 005.41 4.92 47.92 47.92 0 007.58 4.88 21.2 21.2 0 006.46 2c2.13.37 4.26.71 6.38 1.11.91.17 1.8.43 2.7.67.29.07.58.2.85.35 1.13.6 1.41 1.59.79 2.71a4.74 4.74 0 01-1.54 1.6c-.81.56-1.7.96-2.63 1.15zM268.42 148.7a19 19 0 016.78-.13 38.2 38.2 0 0110.6 3.17c2.67 1.26 5.42 2.35 7.93 3.96 2.1 1.35 4.18 2.7 5.94 4.5.91.94 1.84 1.88 2.42 3.07.17.34.3.71.39 1.08.16.73-.15 1.21-.9 1.34-.36.06-.76.05-1.13-.03-1.4-.27-2.69-.88-3.94-1.52-1.2-.61-2.34-1.3-3.5-1.95-2.56-1.39-5.07-2.85-7.68-4.13a56.32 56.32 0 00-10.5-3.8c-2.35-.62-4.73-1.16-7.1-1.75-.45-.1-.9-.23-1.31-.43-.97-.49-1.12-1.45-.37-2.22.25-.25.56-.46.88-.6.52-.24 1.06-.4 1.49-.55z" fill="#453131"/><path d="M368.74 313.17a99.87 99.87 0 012.64 23.4c-.03 3.59-.32 7.3-2.1 10.41-5.16 8.97-16.66 3.64-22.64-1.23-8.65-7.07-15.41-16.15-21.65-25.4-14.82-21.99-27.24-45.52-38.13-69.68-10.7-23.7-18.94-47.74-19.02-73.93 0-3.7.51-7.57 2.7-10.55 3.48-4.75 9.01-3.95 13.7-1.7 11.86 5.7 22.55 18.8 30.1 29.3 8.6 12 15.4 25.18 21.78 38.46 10.14 21.1 19.66 42.56 27.35 64.64.19.53.4 1.06.57 1.59.25.72.44 1.47.73 2.18a82.85 82.85 0 013.97 12.5z" fill="#FBFBF9"/><path d="M312.63 280.43c4.15-3.02 8.98-6.76 9.53-12.21.28-2.7-.26-5.42-1-8.03l-.21-.69a63.59 63.59 0 00-13.57-24.07c-2.46-2.77-6.3-2.65-9.72-1.78-3.65.93-7.2 2.78-10.52 4.52-1.55.82-3.04 1.75-4.57 2.61 1.37 3.31 2.8 6.6 4.29 9.9a544.9 544.9 0 0017.38 35.26c.28-.2.57-.4.85-.57 2.53-1.63 5.1-3.17 7.54-4.94z" fill="#E15642"/><path d="M94.34 347.26a12.67 12.67 0 01-.02-5.56 25.7 25.7 0 013.4-9.03c1.1-1.78 2.4-3.4 4.18-4.57.64-.43 1.3-.84 2.02-1.1 1.6-.61 3.12.16 3.44 2.18a9.6 9.6 0 01-.19 3.44 32.7 32.7 0 01-4.7 11.71 15.2 15.2 0 01-3.65 3.95c-.55.4-1.16.76-1.78 1.06-1 .47-2.05.01-2.44-1.03-.12-.34-.18-.7-.26-1.05zM311.72 251.76c.1.68.26 1.54.33 2.4.06.84-.22 1.62-.69 2.33a2.25 2.25 0 01-2.47 1c-.93-.19-1.7-.72-2.4-1.32-1.18-1-2.17-2.18-3.07-3.44a70.03 70.03 0 01-4.39-6.86 12.98 12.98 0 01-1.53-5.04c-.1-1.04.45-2.43 1.6-2.93.54-.24 1.1-.24 1.65-.14 1.07.18 1.97.72 2.83 1.34a15.44 15.44 0 013.8 4c1.34 2.01 2.56 4.09 3.55 6.3.3.7.49 1.45.79 2.36z" fill="#F16F5C"/><path d="M128.35 380.74c-1.97.15-3.95.19-5.92.26-3.13.11-6.16-.44-9.06-1.39a21.56 21.56 0 01-9.47-6.09c-1.7-1.89-3.33-3.85-5.11-5.67-3.8-3.89-8.06-7.22-13.27-9.33-1.48-.6-3-1.09-4.53-1.58.5 2.12 1.03 4.22 1.58 6.32.22.84.5 1.67.8 2.48.5 1.34 1.06 2.67 1.59 4 .82 2.07 1.7 4.12 2.77 6.07 1.2 2.18 2.44 4.34 3.67 6.5a53 53 0 005.89 8.28c1.8 2.1 3.76 4.07 5.74 6a44.1 44.1 0 004.31 3.73c1.08.81 2.3 1.44 3.57 1.9.81.28 1.67.4 2.5.58.86.19 1.6.37 2.48.2.61-.1 1.2-.32 1.78-.53l1.89-.7c.6-.22 1.14-.48 1.72-.78 1.47-.77 2.93-1.56 4.39-2.36l1.09-.6c1.98-1.08 3.9-2.28 5.9-3.33 3.53-1.88 7.1-3.69 10.66-5.53 1.4-.72 2.77-1.47 4.18-2.13.4-.2.81-.38 1.22-.56a3.5 3.5 0 00-.38-.31 11.72 11.72 0 01-1.8-1.66c-2-2.26-3.95-4.54-5.9-6.82-.25-.28-.5-.57-.72-.87-2.27 1.1-4.52 2.22-6.97 2.94a21.8 21.8 0 01-4.6.98zM307.3 268.53c-3.38.13-6.5-.7-9.3-2.7-1.92-1.39-3.64-3-5.4-4.58a23.5 23.5 0 01-1.63-1.64c4.19 8.9 8.6 17.68 13.27 26.33.28-.2.57-.4.85-.57 2.53-1.63 5.1-3.17 7.54-4.94 4.15-3.02 8.98-6.75 9.53-12.21.02-.12.02-.25.03-.37a44.53 44.53 0 00-9.67.18c-1.74.19-3.47.43-5.21.5z" fill="#C54A38"/></g><defs><clipPath id="clip0"><path fill="#fff" d="M0 0h540v540H0z"/></clipPath></defs></svg>