<svg width="540" height="540" fill="none" xmlns="http://www.w3.org/2000/svg"><path d="M82.3 224.38l14.06-4.66 3.57 12.37-17.63-7.7z" fill="#99332A"/><path d="M127.73 220.12c1.47-4.67-1.87-46.82-1.87-46.82l212.02 6.17-1.8 67.33-208.35-26.68z" fill="#E8C6B3"/><path d="M117.4 227.72c1.47-4.67-1.87-46.82-1.87-46.82l212.02 6.17-1.8 67.33-208.35-26.68z" fill="#E8D7CF"/><path d="M110.21 233.8c1.47-4.67-1.87-46.82-1.87-46.82l212.02 6.17-1.8 67.33L110.2 233.8z" fill="#E8C6B3"/><path d="M313.46 380.77c-3.21-1.34-4.16-10.97-2.36-12.34 10.08 13.35 28.25 11.52 42.01 11.52 20.31 1.1 30.09-14.45 32.25-11.87.72.86 2.47 5.69-1.94 10.1-15.08 15.11-49.54 15.85-69.96 2.59z" fill="#DB9C00"/><path d="M348.01 383.05c20.88 0 37.81-6.21 37.81-13.88 0-7.66-16.93-13.88-37.81-13.88-20.88 0-37.81 6.22-37.81 13.88 0 7.67 16.93 13.88 37.81 13.88z" fill="#FFB500"/><path d="M319.4 368.96c1.4-8.13 41.79-12.64 43.47-4.59-4.52.58-42.57-2.18-39.08 6.75-.68 3.33-4.56-.23-4.38-2.16z" fill="#E89514"/><path d="M368.58 375.78c4.47-.56 8-1.77 7.88-2.72-.11-.94-3.84-1.25-8.31-.69-4.48.56-8 1.78-7.9 2.72.13.94 3.85 1.25 8.33.7z" fill="#F4D07F"/><path d="M105.71 237.06c1.47-4.67-1.87-46.81-1.87-46.81l212.02 6.17-1.8 67.32-208.35-26.68z" fill="#E8D7CF"/><path d="M87.97 253.07c1.48-4.66 2.92-53.4 2.92-53.4l215.83 15.52 2.4 64.48-221.15-26.6z" fill="#E8C6B3"/><path d="M84.4 256.27c1.46-4.38 2.9-50.12 2.9-50.12l214.2 14.56 2.38 60.52L84.4 256.27z" fill="#D6B09D"/><path d="M320.73 373.7c7.29-4.35 15.63-13.18 20.55-19.77 2.84 6.65-3.43 12.2-1.46 18.8 1.03 8.98-18.05 43.93-25.66 46.07-13.77 3.88 12.87-29.63 11.37-38.05 1.48-2.33-3.28-4.35-4.8-7.06zM279.3 247.21c19.29-.77 45.32-4.03 56.94-18.76 2.12-7.97 10.02 2.3 5.4 6.47-1.32 25.28 5.13 49.6-6.63 73.51-19.88 31.5-3.72-36.78-22.25-39.96-51.8-2.35-200.03 17.8-232.15-19.73-.24-.21-3.26-6.7.87-11.05l.02.05c-.76-1.37.09-2.93-.5-4.33v.03c-.69-1.8.83-8.67 1.3-9.06l-.01.01c.86-.9 2.57-.86 3.42 0 .4.66 3.63 1.57 4.26 2.27 56.74 18.09 127.3 22.77 189.33 20.55z" fill="#E15642"/><path d="M71.09 239.12c3.54-2.1 7.47 1.16 10.35 3.44 55.57 24.85 120.53 17.17 180.26 19.8 40.72-.87 72.23-20.94 65.34 40.63-.58 5.18-.04 16.8-1.5 20.09-12.86 29.12-57.8-15.04-64.5 20.25-5.53 31.22 31.76 35.18 54.1 30.37 7.39-1.5 15.74-1 11.12 8.6.4 7.84.31 15.48-3.25 22.32-1.63 6.6-5.45 12.88-11.72 15.93-33.5 7.67-70.95 5.32-105.77 3.5a271.97 271.97 0 01-66.1-12.58c-7.1-2.69-12.84-6.66-19.9-9.07-8.3-3.09-18.18-5.6-22.96-13.33-5.15-9.95-10.2-9.75-6-22.1-15.81-16.02-9.04-40-11.23-60.52-3.5-14.85-12.13-29.6-4.77-44.85 3.92-8.53-8.36-15.06-3.47-22.48z" fill="#BC564C"/><path d="M244.47 420.99s-34.09-3.19-45.92-5.37c-11.84-2.17-15.84-19.15-46.82-21.62-30.97-2.48-32.29-6.61-46.41-24.14-14.13-17.54 2.8-13.64 4.05-37.73 1.24-24.09-3.95-13.65 0-27.7 3.94-14.03 15.38-2.13 33.27-14.66 17.9-12.53-.82-5.44 24.69-10.1 25.5-4.67 61.2-7.47 80.86-3.75 14.74 2.79 30.43-9.4 37.36-15.67-7.38.93-15.42 1.93-23.85 2.11-59.73-2.63-124.69 5.05-180.26-19.8-2.88-2.28-6.81-5.54-10.36-3.44-4.88 7.42 7.4 13.95 3.48 22.48-7.36 15.25 1.27 30 4.77 44.85 2.19 20.52-4.58 44.5 11.24 60.53-4.22 12.33.84 12.14 5.99 22.1 4.78 7.72 12.58 11.25 20.89 14.33a736.16 736.16 0 0121.96 8.06 271.97 271.97 0 0066.1 12.57c21.52 1.13 44.03 2.46 66 1.5l-27.04-4.56z" fill="#99332A"/><path d="M326.08 373.52c-14.95-.1-31.27 5.34-45.59.79-22.81-5.82-28.19-36.23-7.17-48.17 29.45-12.37 44.75 1.8 55.63-10.14 5-5.48 8.88-19.12 13.08-38.6 12.5-4.04 6.17 49.25 6.6 57.34 1.03 19.77-5.94 27.4-22.55 38.78z" fill="#C54A38"/><path d="M170.3 277.94c-2.6-.62-13.2.5-8.51-4.28 3.56-1.89 19.36 2 8.51 4.28zM197.5 275.41c2.75.74 7.7-.65 8.87 2.66.23 6.04-22.1-1.41-8.87-2.66zM131.63 268.4c3.2-.32 13.15 2.76 6.02 5.16-3.68-.02-14.8-2.98-6.02-5.15zM105.54 262.42c2.19.54 12.16 2.58 7.13 6.01-3.02.53-15.7-4.6-7.13-6.01z" fill="#221D1A"/><path d="M275.14 277.12c-10.79.13-1.3-6.3 4.3-4.28 5.5 2.38-1.45 5.14-4.3 4.28zM260.38 277.53c-9.72.74-4.24-5.92 2.36-4.3 6.4.88 1.9 5.64-2.36 4.3z" fill="#231D1A"/><path d="M227.87 419.35c-2.76 1.06-10.12-2.55-4.25-4.33 5.5-1.33 15.65 4.12 4.25 4.33zM151.82 399.03c2.54 1.16 8.64.9 8.92 4.22-1.13 4.62-16.4-1.85-8.92-4.22zM154.7 276.69c-2.31-1.37-7.98.42-8.46-2.75.01-6.1 17.35.57 8.45 2.75zM140.38 399.86c-2.64-1.04-9.94-1.48-8-5.72 2.31-2.18 15.46 3.95 8 5.72zM314.05 270.63c2.76.77 8.62 4.88 6.04 7.9-2.4 1.2-12.37-7-6.04-7.9zM274.47 419.79c-8.7-1.52 2.26-6.34 5.96-4.47 4.38 3.82-3.81 4.1-5.96 4.47zM214.54 280.54c-11.65-1.8 9.66-8.7 6.72-1.37-1.58 1.7-5.03.68-6.72 1.37zM192.85 414.57c-3.28 1.04-10-3.24-4.15-4.67 4.16-.36 12.84 3.67 4.15 4.67zM231.63 275.37c3.14-1.2 8.16 2.75 3 3.9-5.88 2-12.4-4.33-3-3.9zM93.06 372.67c1.08-6.89 12.52 6.37 5.13 5.93a13.56 13.56 0 01-5.13-5.93z" fill="#221D1A"/><path d="M317 383.25c-1.58 10.28-8.11-3.86-2.9-5.8 2.72-.03 2.53 3.57 2.9 5.8zM315 313.2c-3.93-8.72 8.1-5.59 1.49.34 4.31 6.25-8.74 4.08-1.5-.35z" fill="#231D1A"/><path d="M212.46 418.2c-2.68-.83-7.94-.16-7.36-4 1.62-3.44 14.31 1.69 7.36 4zM90.9 260.3c-.01-4.45 10.46-1.46 8.86 2.16-1.2 1.83-8.83.44-8.87-2.16zM245.02 415.87c9.03-.06 2.2 5.65-3.08 4.3-4.68-1.19.14-5.42 3.08-4.3zM287.35 275.8c-9.74-.2 3.2-7.91 5.78-3 .35 2.92-3.7 3.02-5.78 3zM116.86 386.92c2.37-.05 8.82 2.3 4.98 5.3-2.8.75-12.81-4.27-4.98-5.3zM314.06 301.76c.75-1.9-.34-7.13 2.8-6.87 4.48 1.34-.55 15.26-2.8 6.87z" fill="#221D1A"/><path d="M294.61 415.03c8.73 1.76-5.06 8.38-6.06 2.35.2-2.66 4.1-1.9 6.06-2.35zM310.9 411.1c-1.15 2.2-4.89 6.93-7.49 4.38-1.75-2.61 6.84-9.64 7.49-4.38z" fill="#231D1A"/><path d="M101.27 380.52c.42-4.23 5.6-.2 7.31 1.08 3.75 6-7.11 2.37-7.31-1.08zM120.67 265.85c2.04.1 6.25.85 5.62 3.53-2.2 3.94-14.6-2.35-5.62-3.53z" fill="#221D1A"/><path d="M82.27 258.9c-2.73-.91-9.76-3.7-3.87-5.82 2.95-.05 9.33 4.23 3.87 5.82zM177.09 410.7c-1.71-.63-6.88-.05-6.14-3.34 1.4-4.3 13.7 1.9 6.14 3.34z" fill="#231D1A"/><path d="M303.39 270.63c6.41 1.7-1.14 5.51-4.4 4.5-5.08-2.43 1.88-4.61 4.4-4.5z" fill="#221D1A"/><path d="M316.6 285.7c-.12-8.17 6.63-2.15 3.85 2.9-1.83 3.03-4.54-.53-3.85-2.9z" fill="#241D1A"/><path d="M259.6 420.2c-2.9 1.08-6.08-2.6-2.4-3.83 5.3-2.04 10.25 4.38 2.4 3.83zM183.38 274.52c3.25-1.24 6.9 4.08 2.03 4.03-4.84 1.3-8.99-4.41-2.03-4.03zM311.83 404.32c.21-1.52.73-5.16 3.04-4.75 4.77 1.69-2.44 12.97-3.04 4.75zM242.83 278.85c-6.46-1.66 3.77-7.39 5.36-2.93.37 2.9-3.79 2.3-5.36 2.93zM313.08 393.33c-1-2.95 4.51-5.13 4.2-1.13.72 4.87-4.72 7.66-4.2 1.13z" fill="#221D1A"/><path d="M276.88 349.18c-.61-14.86 22.67-16.03 24.13-1.54 1.9 16.34-24.23 17.1-24.13 1.54z" fill="#D9AA8C"/><path d="M288.94 332.04c-9.7.4-1.53-6.8 3.75-3.86 3.64 2.4-1.39 4.42-3.75 3.86zM279.34 331.86c-1.52 1.67-5.3 7.57-7.67 4.78-1.8-3.18 6.35-10.14 7.67-4.78z" fill="#231D1A"/><path d="M269.87 359.2c.44-4.91 6.75.72 7.37 2.86-.54 4.44-7.43-.16-7.37-2.86zM266.84 346.04c-.97-2.83 2.99-6.44 3.9-2.16 1.79 5.14-4.3 9.83-3.9 2.16zM326.94 360.24c5.31 2.5-6.43 8.13-5.85 2.93.43-1.41 4.25-3.35 5.85-2.93z" fill="#221D1A"/><path d="M304.17 332.05c-3.2.94-6.53-2.33-2.56-3.84 4.61-2.02 9.41 4.64 2.56 3.84zM329.95 324.21c8.03.92-6.78 10.95-4.07 3.09 1.24-1.4 2.62-2.6 4.07-3.09z" fill="#231D1A"/><path d="M301.73 365.28c6.26.74-2.18 7.1-4.78 3.46-.83-2.61 1.65-3.39 4.78-3.46z" fill="#221D1A"/><path d="M317.3 328.55c5.29-.15 4.07 5.37-.78 4.23-3.97.42-2.41-4.97.78-4.23zM285.74 369.2c-1.46 0-3.9-.43-3.74-2.32 1.42-5.47 11.2 1.4 3.74 2.32z" fill="#241D1A"/><path d="M312.72 364.01c6.7.2-1.14 7.21-3.39 3.54-.99-2.09 1.68-3.65 3.39-3.54z" fill="#221D1A"/><path d="M331.64 359.87c-2.24-1.37.7-4.55 2.59-4.7 3.46.24-.62 5.14-2.6 4.7z" fill="#241D1A"/><path d="M281.64 349.06c-.37-9 13.75-9.71 14.63-.93 1.15 9.9-14.68 10.37-14.63.93z" fill="#2C2424"/><path d="M341.64 234.91c4.62-4.16-3.28-14.43-5.4-6.46-11.62 14.73-37.65 17.98-56.94 18.76-62.03 2.22-132.6-2.46-189.33-20.55a6.87 6.87 0 00-1.92-1.03l-6.27.15c-.34 1.29-.73 3.24-.88 4.9 6.18 4.88 19.39 12.26 45.45 16.12 41.08 6.07 92.3 9.6 103.54 9.19 11.23-.42 76.78 3.57 86.47-2.92 9.68-6.48 18.97-12.8 19.72-6.27.74 6.52-5.55 16.83 3.89 18.64.75.15 1.47.18 2.17.14-.28-10.09-1.04-20.3-.5-30.67z" fill="#C54A38"/><path d="M331.76 364.78c-7.52 4.92-16.68 8.06-20.86 8.74-.65.1-.97.57-1.04 1.28 5.48-.66 10.93-1.32 16.22-1.28 16.61-11.39 23.58-19 22.54-38.78-.42-8.09 5.92-61.38-6.59-57.34-4.2 19.48-8.09 33.12-13.08 38.6-8.12 8.9-18.7 3.28-35.8 5 .04.04 12.3 12.76 27.97 6.25 15.7-6.53 13.32-19.6 16.76-14.64 3.44 4.97 7.39 23.98 5.19 29.3-2.2 5.32-3.8 17.96-11.31 22.87z" fill="#99332A"/><path d="M59.26 429.85c-3.01-1.32-3.9-10.76-2.21-12.1 9.43 13.09 26.44 11.3 39.33 11.3 19.01 1.08 28.17-14.17 30.19-11.64.67.84 2.31 5.57-1.81 9.9-14.12 14.81-46.38 15.54-65.5 2.54z" fill="#DB9C00"/><path d="M91.6 432.08c19.55 0 35.4-6.09 35.4-13.6 0-7.52-15.85-13.6-35.4-13.6-19.55 0-35.4 6.08-35.4 13.6 0 7.51 15.85 13.6 35.4 13.6z" fill="#FFB500"/><path d="M64.82 418.27c1.3-7.97 39.12-12.38 40.7-4.5-4.23.58-39.86-2.14-36.6 6.62-.63 3.26-4.26-.22-4.1-2.12z" fill="#E89514"/><path d="M106.8 425.54c4.19-.55 7.5-1.74 7.38-2.67-.1-.92-3.6-1.22-7.78-.68-4.2.55-7.5 1.75-7.4 2.67.12.93 3.6 1.23 7.8.68z" fill="#F4D07F"/><path d="M268.11 462c-4.06-1.7-5.27-13.88-2.99-15.6 12.75 16.88 35.73 14.56 53.14 14.56 25.68 1.4 38.05-18.28 40.78-15.01.91 1.09 3.13 7.19-2.45 12.78-19.07 19.1-62.65 20.04-88.48 3.27z" fill="#DB9C00"/><path d="M311.8 464.88c26.42 0 47.83-7.86 47.83-17.55 0-9.7-21.41-17.56-47.83-17.56-26.4 0-47.82 7.86-47.82 17.56s21.41 17.55 47.82 17.55z" fill="#FFB500"/><path d="M275.63 447.06c1.76-10.28 52.84-15.98 54.97-5.8-5.72.74-53.84-2.76-49.43 8.53-.85 4.21-5.76-.28-5.54-2.73z" fill="#E89514"/><path d="M339.97 455.35c4.62-.58 8.26-1.83 8.13-2.8-.12-.98-3.95-1.3-8.57-.72-4.6.58-8.25 1.84-8.13 2.8.13.98 3.96 1.3 8.57.72z" fill="#F4D07F"/><path d="M303.7 167.71a12.74 12.74 0 00-10.82-6.3c-4.44 0-8.67 2.5-10.95 6.28a13.32 13.32 0 00-1.82 6.22v.42c-.25 1.54-.19 3.14.2 4.65.79 2.95 2.74 5.21 5.33 6.7 7 4.05 17.4.63 19.43-7.6.88-3.6.46-7.15-1.38-10.37z" fill="#FFB500"/><path d="M406.19 223.74c-2.74-4.47-8.15-7.41-13.67-7.42a16.65 16.65 0 00-13.84 7.4 14.9 14.9 0 00-2.3 7.32l-.01.5c-.31 1.81-.23 3.7.28 5.47.98 3.47 3.45 6.14 6.73 7.9 8.85 4.77 22 .74 24.55-8.97 1.12-4.23.58-8.41-1.74-12.2zM75.53 164.98a8.28 8.28 0 00-6.92-3.76 8.43 8.43 0 00-7 3.75 7.54 7.54 0 00-1.17 3.7v.26a6.3 6.3 0 00.14 2.77 6.64 6.64 0 003.4 4c4.49 2.41 11.14.37 12.44-4.54.56-2.14.29-4.26-.89-6.18z" fill="#FF928F"/><path d="M62.52 215.7a10.31 10.31 0 00-8.75-5.1 10.5 10.5 0 00-8.86 5.08 10.78 10.78 0 00-1.47 5.03v.34a9.17 9.17 0 00.17 3.76 8.87 8.87 0 004.3 5.43c5.67 3.27 14.1.5 15.73-6.16.71-2.9.37-5.78-1.12-8.38zM411.89 149.13a10.18 10.18 0 00-9.88 1.57 10.36 10.36 0 00-3.6 9.42c.26 1.78.97 3.32 2.02 4.77l.2.26a9.05 9.05 0 002.5 2.77 8.76 8.76 0 006.68 1.46c6.38-1.04 11.08-8.42 8.17-14.54a11.02 11.02 0 00-6.1-5.7z" fill="#453131"/><path d="M376.39 91.96a17.58 17.58 0 00-17.06 2.7 17.88 17.88 0 00-6.21 16.27 18.39 18.39 0 003.48 8.23c.11.16.24.3.36.46a15.63 15.63 0 004.29 4.77c3.4 2.47 7.46 3.19 11.54 2.52 11-1.79 19.13-14.52 14.1-25.09a19.01 19.01 0 00-10.5-9.86z" fill="#2C2424"/></svg>