<svg width="540" height="540" fill="none" xmlns="http://www.w3.org/2000/svg"><path d="M427.76 141.35c-.31.66-.11 1.17.02 1.7.78 3.16 1.6 6.32 2.3 9.5.72 3.18 1.32 6.38 1.98 9.58-.25.25-.41.54-.63.6-.3.07-.68.04-.97-.07-.3-.12-.56-.38-.8-.61-4.26-4.13-8.59-8.18-12.49-12.65-.35-.4-.77-.75-1.18-1.11-.09-.08-.25-.07-.39-.1-.51.32-.61.87-.8 1.37a100 100 0 01-5.63 12.89c-.29.54-.58 1.08-.94 1.57-.26.37-.66.45-1.16.09a7.47 7.47 0 01-.62-2.45c-.44-3.59-.4-7.2-.5-10.8-.03-1.48-.2-2.97-.34-4.46-.02-.19-.13-.37-.25-.66-.31.02-.65-.02-.94.07-2.08.62-4.15 1.32-6.24 1.91-3.2.9-6.43 1.75-9.65 2.6-.39.1-.8.18-1.2.14-.3-.03-.57-.28-.93-.47a7.36 7.36 0 011.9-2.7l9.38-9.39 2.23-2.22c-.28-.4-.46-.76-.74-1.01-3-2.67-6.03-5.3-9-8a38.45 38.45 0 01-2.96-3.1c-.24-.27-.3-.73-.36-1.12-.03-.15.16-.35.24-.49.63-.36 1.22-.2 1.83-.09 4 .81 7.93 1.9 11.84 3.04 1.5.43 2.99.87 4.6 1.1.4-1.12.53-2.19.57-3.26.17-4.08.72-8.11 1.24-12.16l.5-4.04c.06-.55.17-1.08.77-1.53.22.13.57.23.74.47.49.65.97 1.32 1.32 2.05 1.06 2.2 2.06 4.44 3.08 6.66 1.23 2.66 2.45 5.31 3.69 7.96.14.3.35.56.5.8.8.06 1.21-.45 1.7-.78 2.82-1.9 5.6-3.87 8.45-5.74 2.16-1.42 4.37-2.76 6.6-4.08.66-.4 1.32-1.01 2.24-.72.5.71.3 1.46.08 2.16-.22.7-.55 1.39-.87 2.06-2.01 4.25-4.34 8.33-6.7 12.39-.36.64-.8 1.25-1.03 2.1.43.22.82.44 1.24.6 3.39 1.22 6.79 2.41 10.18 3.65 1.21.44 2.4.95 3.58 1.48.55.25 1.1.56 1.55.97.25.22.28.68.38.96-.43.7-1.01.92-1.62 1.02a212.62 212.62 0 01-11.3 1.57c-1.48.17-2.98.16-4.49.75z" fill="#2C2424"/><path d="M282.75 239.33l-1.17-.33c-.35-2.35-.14-4.64-.16-6.91a86.6 86.6 0 01.15-7.1c.17-2.28.32-4.53.25-6.8-1.16-.21-1.99.2-2.83.4-5.04 1.18-10.06 2.42-15.1 3.64-.74.18-1.46.25-1.94-.45-.2-.64.03-1.1.43-1.46 1.08-1.01 2.13-2.08 3.29-2.99 3.09-2.42 6.23-4.77 9.35-7.15.51-.4 1.16-.67 1.38-1.41-.1-.17-.16-.4-.31-.54-2.82-2.51-5.67-4.99-8.47-7.53-1.6-1.45-3.31-2.8-4.82-4.35-.9-.92-2.54-2.35-2.9-3.6-.53-1.82.86-1.18 1.91-.87 1.9.58 3.78 1.16 5.69 1.7 1.19.33 15.55 4.16 15.66 3.82.14-.41.36-.8.37-1.2.05-1.33 0-2.66.04-4l.54-15.52c.04-.88.1-1.77.94-2.42 1.1.45 1.51 1.4 1.88 2.36.84 2.13 1.62 4.3 2.43 6.44l4.03 10.57c.08.2.24.37.36.54.6.27 1-.13 1.41-.41 3.54-2.44 7.04-4.93 10.61-7.32 2.16-1.44 4.41-2.73 6.64-4.05.49-.3 1.06-.44 1.47-.6.7.26.8.7.68 1.15a8.3 8.3 0 01-.68 1.63c-1.64 3.06-3.3 6.12-4.96 9.18l-3.47 6.45c-.1.18-.05.43-.08.65.54.6 1.3.7 1.98.95a155.49 155.49 0 0116 6.62c.79.39 1.65.67 2.32 1.49l-.05.95c-.27.16-.45.33-.64.36-2.2.33-4.4.64-6.6.94-2.78.38-5.56.75-8.35 1.11-.8.1-1.62.17-2.42.29-.5.07-.98.2-1.62.35.2.6.3 1.09.5 1.53 2.4 5.58 4.82 11.13 7.2 16.71.53 1.22.9 2.5 1.29 3.59-.28.94-.85 1.1-1.46.85a7.28 7.28 0 01-1.7-1.02 239.3 239.3 0 01-5.37-4.3l-11.59-9.7c-.22-.18-.5-.3-.68-.4-.73.06-.9.6-1.15 1.03-1.62 2.9-3.2 5.84-4.86 8.73-1.34 2.3-2.79 4.54-4.2 6.8-.36.54-.8 1.03-1.23 1.6zM356.17 109.61c-2.08.47-4.05 1.27-6.19 1.52l-.24-.42c.76-.85 1.7-1.46 2.56-2.15.83-.68 1.69-1.32 2.6-2.02-.19-.23-.3-.42-.46-.56l-4.32-4c-.3-.3-.62-.58-.73-.99.06-.26.26-.31.45-.3.38.03.77.04 1.14.14 1.26.35 2.5.74 3.76 1.1l1.1.32c.28-.47.31-.94.37-1.38.27-1.86.5-3.73.76-5.6.07-.52.2-1.04.31-1.6l.54-.1c.4.33.48.77.62 1.16.5 1.53.97 3.07 1.48 4.6.14.43.16.92.6 1.28l.79-.43c1.76-1.02 3.52-2.06 5.29-3.07.28-.16.58-.41.96-.21.24.22.2.5.08.74-.23.48-.47.97-.75 1.43-.65 1.09-1.33 2.16-2 3.24-.18.28-.34.58-.5.85.17.4.53.4.8.5 1.62.57 3.27 1.11 4.9 1.67.44.15.87.32 1.28.53.14.07.2.27.35.47-.29.18-.5.37-.73.44-1.3.38-2.62.63-3.96.75-1.1.1-2.22.17-3.33.27-.14.01-.28.1-.47.16.09.29.15.54.24.78l1.5 3.88c.16.42.3.87.41 1.31.12.44.2.9.04 1.33-.42.27-.72.05-.98-.16a79.88 79.88 0 01-2.1-1.8l-1.98-1.77c-.11-.1-.25-.17-.33-.22-.34 0-.45.23-.55.43-.43.86-.84 1.73-1.25 2.6-.35.72-.67 1.46-1.12 2.14h-.46c-.23-.38-.16-.77-.17-1.15l-.03-4.5c-.01-.37.09-.76-.28-1.2z" fill="#FFB500"/><path d="M154.86 142.41c-1.54.35-3 .94-4.59 1.13l-.18-.32c.57-.63 1.26-1.08 1.9-1.6.61-.5 1.25-.97 1.92-1.5-.13-.16-.22-.3-.33-.4l-3.2-2.97c-.23-.22-.47-.43-.54-.73.04-.2.18-.24.33-.23.28.03.57.04.84.11.93.26 1.86.54 2.79.82l.82.23c.2-.35.22-.7.27-1.02.2-1.39.37-2.77.56-4.15.05-.39.15-.78.23-1.19l.4-.07c.3.24.36.56.46.85.38 1.14.73 2.28 1.1 3.42.1.31.12.68.44.94l.59-.31c1.3-.76 2.61-1.53 3.92-2.28.21-.12.43-.3.72-.16.17.17.15.37.06.55-.18.36-.36.72-.56 1.06-.49.8-1 1.6-1.48 2.4l-.37.63c.12.3.38.3.58.37 1.21.43 2.43.83 3.64 1.25.32.1.64.23.95.38.1.06.15.2.26.36-.21.13-.37.27-.55.32-.96.28-1.93.47-2.93.56-.82.08-1.65.13-2.47.2-.1 0-.2.06-.35.12.07.2.12.4.19.58.36.96.74 1.9 1.1 2.87.12.32.22.64.31.97.08.33.14.67.02.99-.3.2-.52.03-.72-.12-.53-.44-1.04-.89-1.56-1.34l-1.46-1.3c-.09-.08-.19-.13-.25-.17-.25 0-.33.17-.4.32l-.94 1.92c-.25.54-.49 1.09-.82 1.6h-.34c-.18-.28-.13-.58-.13-.86l-.03-3.33c0-.28.07-.57-.2-.9z" fill="#E56D69"/><path d="M106.98 201.57c.13-.66.1-1.25.34-1.68.5-.86 1.12-1.67 1.76-2.44 1.98-2.4 4-4.75 6-7.13.16-.2.26-.47.47-.84-.47-.28-.88-.63-1.36-.81-3-1.1-6.03-2.13-9.02-3.25a52.16 52.16 0 01-4.27-1.87c-.67-.33-1.21-.84-.96-1.83.51-.81 1.41-.9 2.33-1 3.82-.45 7.65-.64 11.49-.66.8 0 1.65.19 2.37-.35.47-.76.04-1.42-.21-2.09a112.03 112.03 0 01-3.66-12.32c-.06-.26-.06-.53-.09-.78.83-.85 1.25-1.01 1.78-.52.67.62 1.29 1.3 1.85 2 2.72 3.45 5.4 6.91 8.1 10.37.27.36.5.77.57.88 1.34.04 1.67-.7 2.11-1.24 1.74-2.12 3.42-4.3 5.16-6.4 1.57-1.9 3.19-3.77 4.81-5.63.41-.47.92-.85 1.31-1.21.74.07.9.5.85.97-.06.63-.18 1.26-.34 1.87l-3.19 12.18c-.1.43-.14.88-.22 1.42 1.53.54 3.07.7 4.58.84 3 .29 6.01.42 9.01.7 1.82.16 3.62.45 5.58.7.15.33.5.74.45 1.1-.05.38-.4.83-.76 1.02-.63.34-1.36.51-2.04.76l-12.37 4.48c-.33.12-.62.36-.87.51-.28.82.26 1.28.6 1.78l7.58 11.41c.4.61.84 1.22 1.1 1.89.19.45.1 1.01.16 1.75-.72-.1-1.28-.05-1.72-.24-3.1-1.36-6.18-2.76-9.25-4.17-1.5-.69-2.95-1.45-4.44-2.15-.48-.22-1-.33-1.62-.52-.8 1.51-.86 3.05-1.04 4.56-.37 2.98-.74 5.97-1.15 8.94-.06.4-.39.75-.58 1.1-1.23-.3-1.43-1.27-1.74-2.1-.88-2.3-1.67-4.63-2.51-6.95a360.5 360.5 0 00-2.3-6.15c-.23-.59-.55-1.13-.84-1.72-1.25-.14-2.19.5-3.16.93-2.58 1.16-5.13 2.39-7.7 3.58-.5.22-1.01.45-1.54.53-.4.06-.84-.12-1.4-.22z" fill="#E15642"/><path d="M347.64 270.8s13.08-70.51 47.2-59.82c34.11 10.7 27.34 67.85 27.34 67.85M154.6 310.12s-3.16-81.72 32.5-78.6c35.64 3.1 41.93 68.34 41.93 68.34" stroke="#2C2424" stroke-width="9" stroke-miterlimit="10" stroke-linecap="round"/><path d="M382.19 279.49c.99.11 3.79 1.17 4.28 1.38 4.75 1.85 9.57 3.54 14.28 5.5 9.38 3.92 9.18 2.5 9.62 13.21 0 .09.02.17.02.17 2.78 34.7 4.38 69.35 2.53 104.1-.9 16.82-2.05 33.57-5.66 50.06-.1.53.03 1.44.38 1.69 1.55 1.07 1.83 2.35.87 3.87-1.08 1.71-2.68 2.27-4.56 1.55-12.18-4.7-24.33-9.4-36.45-14.2-2.32-.9-3.46-2.82-3.38-5.37.2-5.43.31-10.87.55-16.29.6-13.3 1.08-26.59 1.96-39.86 1.03-15.86 1.94-31.76 3.8-47.53 2.05-17.27 5.17-34.41 7.7-51.64.44-2.9.77-5.6 4.06-6.64zM118 444.57s5.1-96.9 7.39-111.69c2.28-14.8 4.44-38.8 4.44-38.8s21.8 6.64 24.62 8.18c2.83 1.54 10.55 155.5 7.5 156.82-3.04 1.33-43.95-14.51-43.95-14.51z" fill="#E15642"/><path d="M454 450.7s-4.54-120.14-6.58-138.48c-2.03-18.34-3.95-48.1-3.95-48.1s-19.4 8.22-21.92 10.13c-2.52 1.91-9.4 192.8-6.68 194.45 2.71 1.64 39.13-18 39.13-18z" fill="#99332A"/><path d="M311.9 265.84l107.13 10.32 24.44-12.05s-89.8-13.08-100.5-12.18c-10.72.9-29.47 11.4-31.07 13.9z" fill="#FF928F"/><path d="M329.45 449.57l85.42 19.13 6.68-194.45-109.65-8.41-20.87 166.94 38.42 16.8z" fill="#BC564C"/><path d="M277.61 295.47l-123.09 8.33-24.69-9.72s98.55-11.69 110.59-10.96c12.03.72 35.4 10.34 37.2 12.35z" fill="#E56D69"/><path d="M257.9 443.66l-95.95 15.42-7.43-155.28 123.1-8.33 23.44 134.64-43.16 13.55z" fill="#C54A38"/><path d="M259.09 443.67a58.02 58.02 0 007.02-1.9c3.5-1.13 4.33-2.13 4.4-5.78.12-6.44.07-12.88.14-19.31.1-9.63.6-19.26.33-28.87-.46-17.9 16.77-20.89 15.96-38.77-.49-11.16-2.3-8.23-3.12-19.3l-9.8-3.86s-57.2-6.7-63.42 1.77c-6.23 8.47-14.71 50.12-16.41 54.47-1.7 4.35-9.23 73.02-9.27 73.27 26.4-4.67 47.82-6.73 74.17-11.72z" fill="#99332A"/><path d="M379.32 425.76c-9.44-5.33-9.44-10.37-29.36-35.38-19.91-25.02 3.15-29.1 0-48.62-3.14-19.52-37.6-32.82-37.6-32.82l-4.64.95c-2.28 15.52-4.6 31.05-6.53 46.6-1.6 13.02-2.12 26.13-3.06 39.2-.71 9.73-1.41 19.45-1.93 29.18-.29 5.44-.16 10.92-.27 16.38-.05 2 1.26 3.15 3.34 3.72a77.3 77.3 0 006.57 1.46c31.72 5.82 63.03 13.85 95.96 19.34 0 0-13.05-34.68-22.48-40z" fill="#C54A38"/><path d="M253.12 341.29s8.7-50 38.95-41.02c30.24 8.98 26.53 49.64 26.53 49.64" stroke="#2C2424" stroke-width="9" stroke-miterlimit="10" stroke-linecap="round"/><path d="M221.47 349.9c2.83 0 103.52 10.74 103.52 10.74l6.22-15.9s-88.44-11.03-97.3-5.97c-8.85 5.05-12.44 11.12-12.44 11.12z" fill="#F4D07F"/><path d="M324.99 468.8V360.63L221.47 349.9s-11.33 75.88-9.55 109.94c7.16 5.55 113.07 8.97 113.07 8.97z" fill="#FFB500"/><path d="M331.21 344.75s9.19 32.43 11.31 44.02c2.19 11.9 8.8 69.63 8.8 69.63L325 468.8V360.63l6.22-15.9z" fill="#DB9C00"/><path d="M181.71 314.05s-3.15-81.7 32.5-78.6c35.65 3.1 41.93 68.35 41.93 68.35M235.76 359.64s9.85-56.6 44.1-46.44c34.23 10.16 30.03 56.2 30.03 56.2M331.21 276.4s13.07-70.52 47.19-59.83c34.12 10.7 27.35 67.85 27.35 67.85" stroke="#2C2424" stroke-width="9" stroke-miterlimit="10" stroke-linecap="round"/><path d="M240.82 396.12l58.69 5.51M237.2 411.9l58.7 5.52" stroke="#F4D07F" stroke-width="8" stroke-miterlimit="10" stroke-linecap="round" stroke-linejoin="round"/></svg>