<svg width="540" height="540" fill="none" xmlns="http://www.w3.org/2000/svg"><path d="M161.05 355.8v-10.32a4.74 4.74 0 00-4.74-4.74h-14.36a4.74 4.74 0 00-4.75 4.74v10.32a4.74 4.74 0 01-4.74 4.74 4.74 4.74 0 00-4.75 4.75v57.63a4.74 4.74 0 004.75 4.74h33.34a4.74 4.74 0 004.74-4.75v-57.63a4.74 4.74 0 00-4.74-4.74 4.74 4.74 0 01-4.75-4.74z" fill="#FF928F"/><path d="M159.26 345.14H139a5.14 5.14 0 110-10.27h20.27a5.14 5.14 0 110 10.27z" fill="#2C2424"/><path d="M195.31 114.44h-49.53v58.5h49.53v-58.5z" fill="#E15642"/><path d="M194.11 119.47h-47.14a4.73 4.73 0 01-4.73-4.73v-.82a4.73 4.73 0 014.73-4.73h47.14a4.73 4.73 0 014.73 4.73v.82a4.73 4.73 0 01-4.73 4.73z" fill="#663742"/><path d="M171.65 163.52c10.53 0 19.07-7.94 19.07-17.73 0-9.8-8.54-17.74-19.07-17.74-10.54 0-19.08 7.94-19.08 17.74 0 9.8 8.54 17.73 19.08 17.73z" fill="#E8D7CF"/><path d="M195.31 167.99h-8.45s-15.44.62-16.32.62c-.88 0-10.5-.31-18.62-5.09-4.15-2.44-5.66-7.21-6.15-11.3v20.72h49.54V168z" fill="#C54A38"/><path d="M263.32 114.44h-49.54v58.5h49.54v-58.5z" fill="#E15642"/><path d="M262.12 119.47h-47.14a4.73 4.73 0 01-4.73-4.73v-.82a4.73 4.73 0 014.73-4.73h47.14a4.73 4.73 0 014.73 4.73v.82a4.73 4.73 0 01-4.73 4.73z" fill="#663742"/><path d="M239.66 163.52c10.53 0 19.07-7.94 19.07-17.73 0-9.8-8.54-17.74-19.08-17.74-10.53 0-19.07 7.94-19.07 17.74 0 9.8 8.54 17.73 19.07 17.73z" fill="#E8D7CF"/><path d="M403.3 355.8v-10.32a4.74 4.74 0 00-4.74-4.74H384.2a4.74 4.74 0 00-4.75 4.74v10.32a4.74 4.74 0 01-4.74 4.74 4.74 4.74 0 00-4.75 4.75v57.63a4.74 4.74 0 004.75 4.74h33.34a4.74 4.74 0 004.74-4.75v-57.63a4.74 4.74 0 00-4.74-4.74 4.74 4.74 0 01-4.75-4.74z" fill="#FF928F"/><path d="M263.32 167.99h-8.45s-15.44.62-16.32.62c-.88 0-10.5-.31-18.62-5.09-4.15-2.44-5.66-7.21-6.15-11.3v20.72h49.54V168z" fill="#C54A38"/><path d="M401.51 345.14h-20.27a5.14 5.14 0 110-10.27h20.27a5.14 5.14 0 110 10.27z" fill="#2C2424"/><path d="M331.33 114.44h-49.54v58.5h49.54v-58.5z" fill="#E15642"/><path d="M330.13 119.47h-47.14a4.73 4.73 0 01-4.73-4.73v-.82a4.73 4.73 0 014.73-4.73h47.13a4.73 4.73 0 014.74 4.73v.82a4.73 4.73 0 01-4.74 4.73z" fill="#663742"/><path d="M307.66 163.52c10.54 0 19.07-7.94 19.07-17.73 0-9.8-8.53-17.74-19.07-17.74-10.53 0-19.07 7.94-19.07 17.74 0 9.8 8.54 17.73 19.07 17.73z" fill="#E8D7CF"/><path d="M331.33 167.99h-8.45s-15.44.62-16.32.62c-.88 0-10.51-.31-18.62-5.09-4.15-2.44-5.66-7.21-6.15-11.3v20.72h49.54V168z" fill="#C54A38"/><path d="M376.33 394.15h-49.54v31.62h49.54v-31.62z" fill="#F0E2D3"/><path d="M376.33 399.18h-49.55a3.53 3.53 0 110-7.05h49.55a3.53 3.53 0 110 7.05z" fill="#663742"/><path d="M376.33 420.8h-8.45s-15.44.63-16.32.63c-.88 0-10.51-.31-18.62-5.09-4.15-2.44-5.66-7.21-6.15-11.3v20.73h49.54v-4.96z" fill="#E8C6B3"/><path d="M399.33 123.55H349.8v49.4h49.53v-49.4z" fill="#FFB500"/><path d="M398.13 128.58H351a4.73 4.73 0 01-4.74-4.73v-.82a4.73 4.73 0 014.74-4.73h47.13a4.73 4.73 0 014.74 4.73v.82a4.73 4.73 0 01-4.74 4.73z" fill="#663742"/><path d="M375.67 161.7c7.43 0 13.46-5.6 13.46-12.51s-6.03-12.52-13.46-12.52c-7.43 0-13.46 5.6-13.46 12.52 0 6.9 6.03 12.5 13.46 12.5z" fill="#E8D7CF"/><path d="M399.33 167.99h-8.44s-15.45.62-16.32.62c-.88 0-10.51-.31-18.63-5.09-4.15-2.44-5.66-7.21-6.14-11.3v20.72h49.53V168z" fill="#E89514"/><path d="M170.54 401.1h-15.86a2.1 2.1 0 01-2.1-2.1v-13.74c0-1.17.94-2.11 2.1-2.11h15.86v17.96z" fill="#E56D69"/><path d="M133.85 366.77s.5 44.2.99 48.62c.5 4.42 6.14 5.4 6.14 5.4s-.24-14.08 0-19.68c.25-5.6 2.95-32.86 0-34.34-2.95-1.47-7.13 0-7.13 0z" fill="#fff"/><path d="M222.72 355.8v-10.32a4.74 4.74 0 00-4.75-4.74h-14.36a4.74 4.74 0 00-4.74 4.74v10.32a4.74 4.74 0 01-4.75 4.74 4.74 4.74 0 00-4.74 4.75v57.63a4.74 4.74 0 004.74 4.74h33.34a4.74 4.74 0 004.75-4.75v-57.63a4.74 4.74 0 00-4.75-4.74 4.74 4.74 0 01-4.74-4.74z" fill="#FF928F"/><path d="M220.93 345.14h-20.27a5.14 5.14 0 110-10.27h20.27a5.14 5.14 0 110 10.27z" fill="#2C2424"/><path d="M232.2 401.1h-15.85a2.1 2.1 0 01-2.11-2.1v-13.74c0-1.17.94-2.11 2.1-2.11h15.87v17.96z" fill="#E56D69"/><path d="M195.52 366.77s.5 44.2.98 48.62c.5 4.42 6.15 5.4 6.15 5.4s-.25-14.08 0-19.68c.24-5.6 2.94-32.86 0-34.34-2.95-1.47-7.13 0-7.13 0z" fill="#fff"/><path d="M284.38 355.8v-10.32a4.74 4.74 0 00-4.74-4.74h-14.36a4.74 4.74 0 00-4.75 4.74v10.32a4.74 4.74 0 01-4.74 4.74 4.74 4.74 0 00-4.75 4.75v57.63a4.74 4.74 0 004.75 4.74h33.34a4.74 4.74 0 004.74-4.75v-57.63a4.74 4.74 0 00-4.74-4.74 4.74 4.74 0 01-4.75-4.74z" fill="#FF928F"/><path d="M282.6 345.14h-20.28a5.14 5.14 0 110-10.27h20.27a5.14 5.14 0 110 10.27z" fill="#2C2424"/><path d="M293.87 401.1h-15.86a2.1 2.1 0 01-2.1-2.1v-13.74c0-1.17.94-2.11 2.1-2.11h15.86v17.96z" fill="#E56D69"/><path d="M257.19 366.77s.49 44.2.98 48.62c.5 4.42 6.14 5.4 6.14 5.4s-.24-14.08 0-19.68c.25-5.6 2.95-32.86 0-34.34-2.94-1.47-7.13 0-7.13 0z" fill="#fff"/><path d="M452.48 424.5H87.52v6.31h364.96v-6.31zM452.48 169.79H87.52v6.31h364.96v-6.31z" fill="#99332A"/><path d="M155.2 234.84l8.6-2.6h49.72v61.4l-8.61 1.7-49.72-60.5zM362.21 234.84l8.62-2.6h49.72v61.4l-8.62 1.7-49.72-60.5z" fill="#E89514"/><path d="M204.91 234.84h-49.72v58.8h49.72v-58.8zM411.93 234.84h-49.72v58.8h49.72v-58.8z" fill="#FFB500"/><path d="M221.88 234.84l8.61-2.6h49.72v61.4l-8.62 1.7-49.71-60.5z" fill="#E89514"/><path d="M271.6 234.84h-49.72v58.8h49.71v-58.8z" fill="#FFB500"/><path d="M291.46 234.84l8.62-2.6h49.72v61.4l-8.62 1.7-49.72-60.5z" fill="#E89514"/><path d="M341.18 234.84h-49.72v58.8h49.72v-58.8z" fill="#FFB500"/><path d="M253.8 210.32l8.62-1.01h49.72v23.93l-8.62.67-49.71-23.59z" fill="#99332A"/><path d="M303.52 210.32h-49.71v22.92h49.71v-22.92z" fill="#E15642"/><path d="M184.36 210.32l8.61-1.01h49.72v23.93l-8.61.67-49.72-23.59zM331.87 210.32l8.62-1.01h49.71v23.93l-8.61.67-49.72-23.59z" fill="#99332A"/><path d="M234.08 210.32h-49.72v22.92h49.72v-22.92zM381.59 210.32h-49.72v22.92h49.72v-22.92z" fill="#E15642"/><path d="M331.33 257.11h-27.8v10.3h27.8v-10.3zM260.64 258.6h-27.8v10.29h27.8v-10.3zM193.95 258.6h-27.8v10.29h27.8v-10.3zM400.97 258.6h-27.8v10.29h27.8v-10.3z" fill="#663742"/><path d="M155.2 279.26s25.07 8.15 35.52 8.94c10.45.78 14.19 0 14.19 0v7.15h-49.72v-16.1zM362.21 279.26s25.08 8.15 35.53 8.94c10.45.78 14.19 0 14.19 0v7.15h-49.72v-16.1zM221.88 279.26s25.08 8.15 35.52 8.94c10.45.78 14.2 0 14.2 0v7.15h-49.72v-16.1zM291.46 279.26s25.08 8.15 35.53 8.94c10.45.78 14.2 0 14.2 0v7.15h-49.73v-16.1z" fill="#DB9C00"/><path d="M452.48 293.64H87.52v6.31h364.96v-6.3z" fill="#99332A"/><path d="M406.65 399.1a2 2 0 01-2 2h-21.07c-1.7 0-3.06-.94-3.06-2.1v-13.74c0-1.17 1.37-2.11 3.06-2.11h21.07a2 2 0 012 2v13.96z" fill="#E56D69"/><path d="M98.48 333.32a12.74 12.74 0 00-10.81-6.3c-4.45 0-8.67 2.49-10.95 6.28a13.31 13.31 0 00-1.82 6.22v.42c-.25 1.54-.19 3.13.2 4.65.78 2.94 2.74 5.2 5.33 6.7 7 4.04 17.4.63 19.43-7.61.88-3.6.45-7.15-1.38-10.36z" fill="#FFB500"/><path d="M474.8 225.37c-2.73-4.47-8.15-7.42-13.66-7.43a16.65 16.65 0 00-13.84 7.4 14.9 14.9 0 00-2.3 7.33l-.01.5c-.31 1.8-.23 3.69.28 5.47.98 3.47 3.45 6.14 6.73 7.9 8.85 4.76 22 .73 24.55-8.97 1.11-4.23.58-8.42-1.74-12.2zM60.52 168.96a8.28 8.28 0 00-6.92-3.76 8.43 8.43 0 00-7 3.74 7.55 7.55 0 00-1.17 3.71v.25a6.3 6.3 0 00.14 2.78 6.64 6.64 0 003.4 4c4.49 2.4 11.14.37 12.44-4.54.56-2.15.29-4.27-.89-6.18z" fill="#FF928F"/><path d="M119.2 220.5a5.16 5.16 0 00-4.37-2.56 5.25 5.25 0 00-5.17 5.06v.17a4.43 4.43 0 002.24 4.6c2.83 1.63 7.04.25 7.86-3.08.36-1.46.19-2.9-.56-4.2zM489.6 260.85a6.66 6.66 0 00-6.47 1.02 6.78 6.78 0 00-1.04 9.29l.14.17a5.73 5.73 0 006 2.76c4.17-.68 7.25-5.5 5.35-9.5a7.21 7.21 0 00-3.99-3.74z" fill="#453131"/><path d="M445.32 82.93a11.06 11.06 0 00-10.72 1.7 11.25 11.25 0 00-3.92 10.23c.28 1.94 1.06 3.61 2.2 5.19l.22.28a9.85 9.85 0 002.7 3 9.5 9.5 0 007.26 1.6c6.93-1.14 12.04-9.14 8.88-15.8a11.96 11.96 0 00-6.62-6.2z" fill="#2C2424"/></svg>